<mxfile host="app.diagrams.net" agent="Mozilla/5.0 (Windows NT 10.0; Win64; x64) AppleWebKit/537.36 (KHTML, like Gecko) Chrome/129.0.0.0 Safari/537.36" version="24.7.16">
  <diagram name="PÃ¡gina-1" id="eaPkDug-7Ed4anRGRJ3d">
    <mxGraphModel dx="1120" dy="460" grid="1" gridSize="10" guides="1" tooltips="1" connect="1" arrows="1" fold="1" page="1" pageScale="1" pageWidth="827" pageHeight="1169" math="0" shadow="0">
      <root>
        <mxCell id="0" />
        <mxCell id="1" parent="0" />
        <mxCell id="Csk-3HbRqVcOM9MHtjag-11" value="" style="shape=image;verticalLabelPosition=bottom;labelBackgroundColor=default;verticalAlign=top;aspect=fixed;imageAspect=0;image=data:image/png,iVBORw0KGgoAAAANSUhEUgAAASQAAADTCAYAAAAoGW75AAAAAXNSR0IArs4c6QAAAARnQU1BAACxjwv8YQUAAAAJcEhZcwAADsMAAA7DAcdvqGQAACPCSURBVHhe7Z0NfBTlve9/vCmIaLkKRwWRJGggYI+CULH0SuIFNB5rUi4K2gOUFIGQtoB7T4/Y3mM/vNzWLtCDIRYwCLRqtXCiovEgNqGIRon4co4EIyThValy9SgvAoKc+T/7zO7sZiY7m2x2J8vvm8/zycwzb8/Mzvz2/39m5zft3np711kQQogHaK//E0JI0qEgEUI8Q7NTtvt+PAGffHJIj7mjZ8/LsOKxp/QYIYSE02xByvt+NlatXqfH3DFl8v/Gs89X6jFCCAnHWylb9cP4Qd4tujyMal3tTBWK86bj2YN6NFYOPg2f3fLSjvufRuyrNdqjltuPZ++3tN9uv5y27TlaeIyDWNYT9313OO5NcLBsOn6wtEqPBVB1rj735h8T99to21QvvQW+sv16zD22grTir/tww6+2qiLDdlxyaQ8V8cRSLrnkUr20DXKSLgAeePYv+Dcpy67CQTdnVkvodTf8z/4eeb30uMI42f50FR5ZdDfCqpuL037ZbttKvITAg0Td91bG+EyWbM3GIz8driuEKpSt2aWHW4tEbCNetOz8G/rT1RixdUHMyzcSpCMnTmPF5n34h+v+ThUZtuPyy3vhD088F1O5LTdPL23DR3tRn3EVrtCjctLmDdXDieRgb+THS4wEr+wXCXJwWyUw4qawz/hg2Rpg0n1I1+OtQSK24R2uRN74dKxdHx6FRsMxZXvozqtViQdvlx/AC0t3YGCfm3WNDUO/h5y6FVhiF+apEN9MeW5BsW3kFKnokeMSzkeuI2Ie2c7MyfhJo+3o+cpCqZd9ODocRUrMjA9j0T9B6Y7jflm3Hdk2mfYLVGAX1s406szUIuw4mKmJXk91aJq0W6UGetzaVgmlzfrIlCWIZTu+sogvJNs2RGJ3rK1Y9z0e7bc57o7sR/VWQ4+GXanHDYx9WrJ/EoqG6XE7WnpMom6j8XEI7XdgWvFSOSbWlN/cpnmMA8c97Hhbux8c29mc88+6HYfP+4qrkL53X0zpaSNBuuN3b6n/ZsomjPz1G+p/rJw9C2x7bi+2v7QXH+/6L7z06H/qKXYYJ9WzEuZNjthZ4+DMXIG+D5opz33Ys8A8md0iB2wyto5YHViHUYoanbXRtmN8OPu/F5j24BjUr3nK4WKMxGm/LFQ/hbVXzbe0TZaZjxxcjYnLjDqVWkj7KjFCxlUbgKeDJ6zRtj8Bs3XbKhbcgiV40LatQ3+ql5f1V6yxOY7hx2E2Ko0T06SpNpi4OdaRxLP90TiAA3Xp6BUMj4z2Ljb2aaw1fYskDsck6jYEy3Ewzj+ssaY8u7DnSjkmIrjh7QmdqxKVGMevKvRFU121ETnjRayd2mn3eTmdfw7XR6PzV7Zs0KsP+tbtxUd61A2NBOnoydN4ac6wsCJ1bvjzvHfw6lP1OH3qLL755htUrWvAe68cQM8+F+k5oiHfcObO6ov34D7swRh8J7iTd+PunF04EMteHnwdW+vG4O58y7diJFG3Y3w45gklUQ/qcdD1xWCzX1bkm6TiF2GRQCNU+/Q3lnwTLdiI+v0H9ESjbXN0mqnadnUoAohsa7CDXb4BbZDtZNyHfH0ceuVPMpbXNNkGjZtj3Yg4tj9GDpYtMC7GB5vuz2rhMXG1DYXlONicf8FjorbpcK7K8ap4VQt4Fd7cq9vt1E63n1dT23Q8f3ujd0Ys10kTKVtz+K9PjuPU8TN4bvF/YMsT9dix5SN8O/tKTPi/N+o5XGLs7OxJV4cpfUrgtF9Gvd/4ZpmNBepksY2iFGNCneNSwjplXSAhd7CDfTUmZuj6mGhhG1pCXNpvJdDJXL8mEL3+wIgA6o30+icx3wVr6pg0dxv7cXCvHoyJ4cifVK+iH+mz2hPWV9ZKn53j+RsZjUYnroIk3F54HU4ePYVd2/6GATf1wv+aNAgdOnbQU5vAyJ1D4ank+buQfmVvY2eNsA8b8aa5k8ZJ+XSFRamDiBpbvlGqXw19g/a6CSMyNtqE0hZcbydGnPbLhl75v8cjhmDtOWDTTt2+JvchGtYOdvXNqGrDUWH2CpTp4yAndeg4umiDm2PdXNy0PyrWb21JTSwXqBHBphuRUKM7rC06Ji63odiFrdv0enTkYnv+6W06nau9hmUDW59CmbWvzKmdbj+vKNsUGp2/KrK03NBxQSNBuvD8jrht8bawInVuebHkXXS+8HxkDrscO18/iFfWvI8zp8/oqU0wtA8OmOFk3mSVk/pVGGl8oDrVCXzDSB5s13Gp82dzPiMICYbVKmWaj77mt1SYipu43U6MOO6XBcvvlH6yJl2Hz8PxHSMkDnUqBtoHyz44dko7MXQCJsL4dpZlF+9FX9sIw9iO7seRbSxBtuU4ummDm2PdTFy1PxpXYugI43o1L3xXtPSYuOVq9N0fiDIkkur7oNP5F9im47kq6dRVG1Fx1SRLmujUTqfPy/78s92m7flrIF8gV/WxEV5nmv1L7V88OBs//+df6bEA0ofU65ruyJk4EB07tsdf1r6P/9gc6EP6ZN+Xap45q29T/wlJGpL6LQZmx/PnHS2mCsV5a9B7WXx+nyV3I98c7uaGQmshneVGfj0ntv1pdsr2rYu74ze//pdgaWf8/eOCmzDmx99Gp/M6oF37drhl0rUYPCYtKEaEeALpyxtRiZ80O5LxOJJOmZ3ZSaJ6qWQD1gjNHQnxQ3pt3YfY/8HnGPYP6Ui/roeuJYSEiEeEFLiFv7ZObtcn8ZfwLYAGbYQQzxD3u2yEENJc2h07dowREiHEEzBCIoR4BgoSIcQzUJAIIZ7BdR/S9u3bMWTIED0WP0aPHo2DsTx9Z9CrVy+8/PLLeowQkiq4FqQbbrgBy5cvj7soDRw4EJs3b9Zj7hg5ciR27NihxyKpxNwBhSjTY0J+yU4szJahpqYRQpKN65TNEC7MmDFDRUpuWbBhH7pO26qKDCeOLPjKd2LnTqOU+1BbONeQIhPLNKNQjAjxDjH1Ic2bN8+1KH3x1RksfGEf7h3eUxUZtqNLly4oKirCG2+8gTNnzuDEiRN4/fXXUVhYiJycHBUNRZYLLrhAL+2CtHRkohb1DXqcEOJZYhKkMWPGxCRKworJ16jixLp16zBtwTQ8c/QZ3P7U7chbl4f1X63HjF/PwLvvvouqqiq89tprYUXSPNdUbkJZfhEK0vQ4IcSzxHyXTURp4sSJSpSOHDmiaxvT/4Ft6r+ZsgmXz2r8MOO6hnWY/8p8HD52GLf2v1WVT49+ivmb5mPpa0vRtWtXtGvXTs/tlhr4cwdgwACjFAIlYXmZZdoAaypHCEk2MQuSREZr165VkVK3bt10bWO+NFK23b8ZFlakzkrF7gq8+MGLWPT9Rfj8+Of40bAfqSLDUvf8juexde9WdOrUSS/hFmsfUgaKB4xFaTBls/YhLQS7kAjxDjEJkoiRREYiRhIptZTHqx/HoSOHcM8f78EXJ77AHaV3qCLDUifTVm1bhfPPP18v0QzScpCbVYO6PXqcEOJZYhKkeIqRUHOoBi/++EVMGz4NE66fgC0zt6gy/vrxmD58upr2/kfvo337mAO5EA0VKK/JQkZfPU4I8Syur/SOHTvGJEYXdemAfj/fFlakzg4xdztr/JmclfcnmcTafaSw9BPlliO3fL2lU9vahzQAY0O5HCEkybj+YeTGjRvjFhmZTPzTRFTva9pweVifYVg1blVYB/qsWbOwevVqPUYISRVcR0jxFiNh8tDJuKzbZXjyh0/i4s4XY0PBBlVk+Ml7n1TTpgybgieeeEKJkFl69KDrJCGpSNL9kJZsWaLupnXu1BmDew1Wqds7B9/Bia9PIG9QHn72vZ/pOQkhqY4nDNo2121Wd9N2HAo8nzbo8kEqMro5/WY1Tgg5N/CEIBFCiNCC++mEEBJfKEiEEM9AQSKEeAYKEiHEM7ju1Jbn2GhhSwhpTVwLUupY2BYjI+xREsGpnhCSSFynbIZwxWTMJnjTwpYQ4lVi6kOKxS2SFraEkFiJSZDkebZYREmghS0hxC0x32UTUWrbFraEEK8SsyBJZNS2LWwJIV4lJkESMYqnayQtbAkhVmISpHiKkUALW0KIFddXeupb2NLalpBk4/qHkbSwJYS0Nq4jpHiLkUALW0KIlaQbtNHClhBi4gnHSFrYEkIETwgSIYQILbifTggh8YWCRAjxDBQkQohnoCARQjxD0ju1aWFLCDFJuiAlwsI2y1eO9TaGSJVzB6AQJdgZZk9CO1tCkkWLUraGhqaf9/KEhe3OEmT6czFgboSJbUMpimvzkV9bTGsSQjxCswVJrEjuuusuPdYYz1jYIhsLy33IKtsU5qvdUFEO5E7F1FygvIKKRIgXaJYgiRgVFBTg6NGjusaZpFvYCsoTqQybgorUAKVHOWnGJKVIRg0hJNnELEimGJ08eVLX2JNcC9soiEcScmHoUUCsjDEGSYQkn5gEya0YCcm1sLUjZNIWSNdyEOizToMESf6VfFESIcnGtSDFIkZuSYiFraBcIzORrhSoEiv9NaiRjm5txpZrjCOij4kQknhcCZLcTZs+fXpcxUhIiIWt3MbP9SOzZCECL6/dhLIsH8rVHTizlMMX1sdECEkGrq70tLQ0VFdXWy7gUHHCMxa26jdF5qu0RY/KkBVM10wkbcsygiRTkWhnS0gySOoPI2lhSwix0pJcqMXQwpYQYiXpj47QwpYQYuIJx0ha2BJCBE8IEiGECEntQyKEECsUJEKIZ6AgEUI8AwWJEOIZKEiEEM+QsoJ0+puzWPr6B7iu+CVcunAdhj66EX98tzmPgDSgdGzoMZIBY0tTwDtJbHrH2jtlVs4N7euAufF54LihFGOdtkeIhZQTpK++PoPtH32Gouer8cKHH2Nx7hC8Of1WPHBzFvyvfoD/91cnL24b1IWUi7oiy/N7fqDCMw/hNiEszUH2txAoMfe1PAP18djXtAKs30mPchKdlBEkeR7Xv3Unrl68AYXPb8P2jz/DY/nfQVbPi9D1vI64qU8PrL1rOEre+BAfH/lKL9UURmTkE5eA0IO5CuPiKrCOpxJ76lCTlQFtG5Xa+0o8ScoI0pq36/Hvuz7GKwW34LkfjsSGfxyJ8zqE717Prp0x3BCmeZXvo+bTL3WtA8pDKR+jmrogVQQVSudC7xHQkUtpKP0JOQY0Nc0gbJ3WlCk8dZxbKeuRt6toZwJz407LW+rHltbrygiyRyG/xg+fXchlu97AvsydO9aoG4uxRvvC3qUg6Z9KcSMjuch9MavttuEwL0lJUkaQfr9tFxaMug7f6hzuLpnxSyMHsfzPG3Al2rdrh+//YTOe27lf1TlijRYaYVxkymfJTG98qC20XnSGUNSNCkwryUeNf6W+wASnabLOcuSab0wpAYrVCuWizEW5MU3VG2VhdjYWGjPkm29YUWGc0/LhbfWjPOw1USFknbJ8wLwuTGBt1yvUoDbDb9Svx/qifIuFi7HUpjLkFxVEWL3Y7YvUO2yjciX8mSUR85JUJWUE6dCxE+h9URc95kxOv7/DL7IHofQHN+Jf/vK+rnWgpg579GAjGupRa8hBMIIy0pui/BrUBRcwhGKqniiRhzF3fVCsHKapdVq8mAqN+EdWqKO1omidMI7LG/VZPpibTCsoMrbpRBoK1hsXvxJYLUpO61VkqZclKGRfgs6bldhUG9pmEKd9cdpG3wxklRXSk+ocIWUEqX+Pi1B94LAeCxAZHZn/hbTuF+LwsSYcMBu9qSRR5Ic6laXEHBK0dHmNIbB+n9W0zs16szHVV6sim4bSYtQ2MsKLhs02VIe4RHW+iKiNpCIpI0gP5VyLf375Xfy14W84eSb0MoG6Xy0JFpOjJ7/Gw1tqMLrfZbrGDiNSkBTEjBJMGkpRKuNp6cg0Ep/g9WrUF5dF6XOKhl5nKB3SaHFsVB+J4/JGfY0f5nsMRCxsU7ZKY9+Ci8qromqMrNVIWp3Wa0PgtVIrsbI80z6ic9qXKNtIK1iPckMga0NhJklBUkaQbrzyUjw+djhWvV2PIctewoXndUSnDu3xtRanU2dO47yOHVX9d5dvwrFTp7H49iFqmiPZC4Opi0ojpPiMtE+JTuAFlMFpqv9D+3Y3m8A6jbwltD2lhpJG6Tfw6vqASGZjlJEmhjq1nZY36ksC4ip1PuTap2zZ6agzU6YBuarvJvAKcqf12qBeK1WGssxRxlJ2OO+L7TYsv4vK9TuIHEkZUtp+5NZlD2NYnzRMGn4zVldtxvb9e1Fe+H/0VEKI10hpQdr/+f/HfU+WYsvuD/A/+/XHinsKcGX3S/RUQojXOCcM2rrOnoJjS1bpMUKIV0mZPiRCSNuHFraEEM/ACIkQ4hkoSIQQz0BBIoR4hnNCkD788ENMnz4dQ4cOxW233YZPPvlETyGEeImEC9L27dv1UGKora3Fvffei1dffVWNL1iwAD179lTDhBBvkXBBmjZtWkJFadGiRTh+/Di6dOmCZcuWYfDgwXoKcOjQIT1kRyXmmo8wqGK1FkkyyjfIQ+0hJE4kXJCOHTuGGTNmxCRKCzbsQ9dpW1WRYbecPXsWb775phru3bs3Bg4cqIaFqqoqTJkyRY85ob2Gdu6EeszKlyw/bRFHiwCpJ+BpCUtSj6T0Ic2bN8+1KH3x1RksfGEf7h3eUxUZjoV27dqp/7t27cK4ceOUIEr6NnPmTHz5ZRTXSAvKQ6imHBWMSghpNZIiSGPGjIlJlIQVk69RJRYkQrriiiv0GLB3717cc889KCoqwsmTJzFixAg9JVYCEUvAulVbrYbZr1otS3R0U2m1kLWomq1tq3X9Uh9pVRsRMdmug9avpO2RFEESRJQmTpyoROnIkSO6tjH9H9im/pspm3D5rCr1vym++eYblJSU4Prrr1f9Rya7d+/G6dOn0b17d/h8Rh7mEuUhlJUL0xwxZN0qliOGQESzsy02Uj49zcj99DRZLpo1rEyLtKq14rAOWr+SNkjSBEkio7Vr16pIqVu3brq2MV8aKdvu3wwLK1LXFCJGy5cvV53ZkpqNHj0a/fr1U8LUtWtX5ObmoqysDJdeeqlewomQpap48ZSst/pDW6xblf1qFDtbv17WOs2tNWxT0PqVpBBJESQRI4mMRIwkUoonphgdPXoUEyZMwGOPPYZrrrkGzz77LN566y1s27YNv/3tb9GjRw+9RFOEOrUDkVA8aEB9rR5UxMNyltavJDVIiiC1lhidOXMGxcXFSozGjx+PVatWoU+fPpg0aVKwc7tV0Parzna2NSg3e8Otr1eKwRrWEVq/khQi4YLUsWPHmMTooi4d0O/n28KK1EUiYiS/Mzpx4oQSo9LSUpWmtboYKQL2q852tlnIrAtEKgNUX5M5za01bKRVrRVav5LUIeH2Ixs3box7ZCSYYiS39leuXImsrCyVsiUfuSNWjIxy/m6IkGgkPEJqDTGS6Ej6pWTdK1aswLXXXusRMSKExELS7rLFkw4dOuDOO+/Eo48+qh6gveuuu/QUQkhbgo6RhBDPkBIREiEkNaAgEUI8AwWJEOIZKEiEEM9AQSKEeIaE32WT3wsNGTJEjyWWyZMn66FwVq9erYcIIckk4RFSa1rYiuBYix2/+93vwooz8gtr/SiGLq4eUDUf2RibJHdJ2tuSNkzCBak5FraxYBUaecLfWmLH8rR/ST7KCk3zMycMESssQ774IoVZlSQQ2tuSNkxS+pBidYv0BNmjkI9aRH9oPgsZffUgISQmkiJI8sxZa4nSrFmzVBHy8vJUefDBB1Wprq7Gd7/73WCJicpN4Y6RjWxjJcULWc0GjdGiWtTquibmKy0NPbkfbrhmZ1Orl9GzVc4NTQ85BdDelniTpN1lE1FyY2HrBnmbiBQRHCnSSR3ZUb158+awIpjC5YzFiXHTKEsaZlz0jWxj+2KhxWp2vcqZ7OYzBSXSAtd5Pn+dsW2dNtb4VxpzCyIquSg3llPTjGLn7Za9UK9T2lZWHBAq2tsSj5I0QZLIyI2FrVusQiMukdbihJ1whaP7kMp9yCrbpIXAoEnrWQtuLWqjzOebqhXDmjZqo7eoPkdBXySJ3jS0tyUeJSmCJGLUWq6RgrzeyFpaTFoB/L7aCFdGt9az8Z4vBiQNLIRebzl8Wbqe9rbEoyRFkFpDjEaOHKmKMGfOnLASD+S9bJnm20LcWs/Gez4raTnIzYqyzJ461GRlQPWxq4hK1QahvS3xGgkXpFgtbN2wY8eOsGKHKVhW4YqNbEwNvr3WvfVsfOezkoaC9SWGSIaWabRI9lQjBvIjV6b76pBpRki0tyUeJWUsbAkhbR8atBFCPEPS7rIRQkgkFCRCiGegIBFCPAMFiRDiGShIhBDPQEEihHgGChIhxDMkXJDalAcSISShJFyQWtPCtnUI9w5KuDUtLWnJOUTCBak5FrYLNuxD12lbVZFhJ3Yd3oXp66Zj8JLB+Paib6Pg6QI9BThx+gT+fvHfNxpuEiUGuagrsjyF7wcqEvl0PC1pyTlEwh8dkShDPK9/+ctf4tFHH436BpIvvjqDK2ZV4d7hPdX4E1Wf4NjyEWrYSv1n9Ri3dhxu7HMjpgybgm91+RZq/laDO7LuUAJ0/eLr9Zwhzut4Ht6b854eiyRggCZiRAMzQhJDUjq15eHaWC1sV0y+RhUn/nXLvyLjf2TgkfxHMKT3EGRckqHESOjcsTPemfOOEqCd/7QzOOwsRgbaAG1UU2IUZjtrfdo+ivVsI7vaQFoYnEeexg+mhuGWtM3eZhh2FrZ2dYQklqTdZRNRcmNh2/+Bbeq/mbIJlxsRUyTV+6sxOnM02reL4y6ZXkK2iO2sH5nyhhFJ5cp9qC209vU4Wc/a2dVCW4nIPMZ0MVWzfWtJc7dpJRD5NbK+pa0t8QBJEySJjNxY2H5ppGy7fzMsrEhdJKfOnELH9h31WDhmynbq9CkMeHhAcDhqP1JNHWyMaQMo21lLBJVWgKL8GoScbJ2sZ53sarOx0BCnwgGiRuKzbUNzt2nFyfqWtrbEAyRFkESM4u0aOeiyQajYXaHHwmlWyqYdGTe1SurSCna1LYW2tsQDJEWQWsPC1jfSh7cPvA3fBh/e2v8W3vvoPfzhrT/oqQFRMgXIOuxMGgqK5OWQERdnQylKZVzbzgYFy6gvLovS5yQ42tXqVE1yOKcXUjZ3m7Jusx8qivUtbW1JMkm4IMVqYXtRlw7o9/NtYUXqIpEI6bG7H8PHX36Mmf82E7Oem4W6z+r01GaSvVD304Q6ewf4gBwlAAHb2eA01S/kkGqFYWdXa4jc2ELU+qYaU8UqtxaFtr93au42rThY39LWlngAWtgSQjwDLWwJIZ4haXfZCCEkEgoSIcQzUJAIIZ6BgkQI8QwUJEKIZ6AgEUI8Q0rd9vf5fDh8+LAea0znzp0xe/ZsZGZm6hpCiJdIKUGaPHmy8lpyYtasWTjvvPMwZ84c9O/fX9cSQrzCOZeynTp1CosXL8YHH3ygaxKB5VmyVMJ83EQec1E+TSm4jyShtAlBcmth6xYRJYmkzp7lj9SbjzwMXIZ88WYS7yZa7ZI44HlBEgvbhS/sUxa2UmS4uYgImeXEiRO6ljSfLGQ4O9gREjNtJmWLZmErLFu2DBdffDG6du2KDh0aOwLEhk6zKkOWsVbzssq5gTpVwv1JoljBynpDyziux2JVO7a0NDzls0wLWOCqShcWtA7zhK3Puqw+Bo1scaW+EGXaaC5UZ9/GRu0nxAHPC5JbC9ujR49i3LhxuOmmm1QfkXRet1yUjAuuGPCLiZqyDPEFL6rshabBWgnyy4p1vYM9bBCZrkyPgqZs9usxLm6LVa0f5cbFbyLTIi1wjYWiWtA6tS18W+5scbOxUNorDpVGO9Y3ytOaaj8hznhekNxY2B47dgwXXnghHnnkESVCYo27dOlSnH/++XqO5mJccH7tbR1pFxv0D5JIQeNkD6sp9wUEIUwsbNdTj9osH0w32rSCIuPi1zhZ4EazoHVqWzxscSNpqv2ENEGbSdmaYvz48di9ezcyMjIwatQoVffCCy+gU6dOajg+NKC+1hw00hEV6EgEUA5flq5vkhqjZGn/bE2z1iPYWODSgpakACkhSJ999pn6DdJDDz2EZ555RtW1bx+PXatBeYUOB6yvRdpThxrzjSSqXgYMmrSHzUKufz1KYIliHNeTjswaP1ZqUWkoLQ5FT44WuAHCLWgt/TpObWu2LW4TNNV+QprA84LkxsL2zjvvxOeff44///nPuiZglSt1LYuSspBZF4g4Bqg+EW0Xmz3ViEP8yJV6Xx0yg5GNgz2sheyF0v9jTJff7jiuR95AEvDzlnX4kGtJeewscI2NRLWgdWpbPGxxI2mq/YQ4kxK/1P76669Vn5Gkae3atVNidPDgQZXCrV69WvUlyTxW5Ffbjz/+uJrfHokuipFR7oHf1khql1uHop0tFYok0dbbTxJGSqRsEgXdf//9qKysREVFBZ5++mlcffXVqKurUy+jPH78eJz7kxJL5Up/KLVrg7T19pPEkbKe2pKuSb+SdHb369cPZWVlKCgoCP46+5JLLoHf7/dohBS4Re83+5RUJ3Zbii7aevtJskhpk39TlLp3765SN0KIt0lpQSKEtC1Sog+JEJIaUJAIIZ6BgkQI8Qwp1YdEC1tC2jYJF6Tt27djyJAheiy+0MKWkLZNwlO2adOmKVFKFm4tbMWnKPyxD8tzYSbyuEaTT7HaLJMoaC9L2iAJFyQjIsOMGTNiEqVkWNhmj8pHWfCJUwNt+xF82Nagob4WWZ60TDSEkPaypA2SlE7tefPmuRalpFnYir9QbT1M+WmoKEemz4eQUVADjCrk5nj1Kqe9LGl7JEWQxowZE5MoCQm3sBW7DpQjEBAFxCcjJx2ZZZuM+EPYg7qaTKSbeqTSIv3EfNBWVrMnNM3RQE09bmEub0kXw9ZrTSN1Okh7WZJCJO22v4iSPPgqonTkyBFd25jkWdimIT3TdE40xMeQp5y0bIzK146JlZtQlj9KP59lXPB2trIKZxvcELSXJURImiBJZCRWsxIpdevWTdc2JpkWtsF+JBGfzHRlZWtkcqofKaz/yMlWVtGEDa4J7WUJUSRFkESMJDISMZJIqaW0moWt7keqNMQnX6tCWk4uUFdh039kYyvbCIsNLiGkEUkRpHiKkdBqFraqH8mPQj9CHcRiz1rmh9/af9SkrayDDa61X4f2soQoEi5I4uYYixgl18I2DTm5WUZmJP1HugrSj2T8C/YfCQ62sgoHG9wwaC9LiJDwX2pv3LgxbpGRSetY2J4jyB032ssSj5DwCCneYiSkuoVta0J7WeIlUtagreUWtqkK7WWJd0lpx0ha2BLStkhpQSKEtC2SctufEELsoCARQjwDBYkQ4hkoSIQQz+C6U1ueP2sN69nRo0erHzHGQq9evfDyyy/rMUJIquBakG644QYsX7487qI0cOBAbN68WY+5Y+TIkdixY4cei0SeEStEWZYP5eKWqOrM396Yv7mJHCeEeAHXKZshXDEZqgnxtp4lhKQ2MfUhxeLy6NZ6tkuXLigqKsIbb7yBM2fOKGvZ119/HYWFhcjJyVHRUGS54IIL9NKEkFQiJkGS59BiESUhmvXsunXrMG3BNDxz9Bnc/tTtyFuXh/VfrceMX8/Au+++i6qqKrz22mthRdI8QkjqEfNdNhGleFrPrmtYh/mvzMfhY4dxa/9bVfn06KeYv2k+lr62VPljn/NP5BNyjhCzIElkFC/r2YrdFXjxgxex6PuL8Pnxz/GjYT9SRYal7vkdz2Pr3q18Up+Qc4SYBEnEKJ5uj49XP45DRw7hnj/egy9OfIE7Su9QRYalTqat2raqxd7YQWizQYiniUmQ4ilGQs2hGrz44xcxbfg0TLh+ArbM3KLK+OvHY/rw6Wra+x+9H6MdbTam+rKMlYdsWlG5UtltZOXm6J8BEEK8iOsrvTWsZ03aGX9njT+TsDfKNqP7KK1gPUryEbRplbeAZPnKbV4JRAjxEq5/GNka1rMT/zQR1fuq9Zg9w/oMw6pxq8I60MV+lv5GhKQeriOkeIuRMHnoZFzW7TI8+cMncXHni7GhYIMqMvzkvU+qaVOGTcETTzyhRMgsPXr00GsghKQSSTdoW7Jlibqb1rlTZwzuNVilbu8cfAcnvj6BvEF5+Nn3fqbnJISkOp5wjNxct1ndTdtxKPB82qDLB6nI6Ob0m9U4IeTcwBOCRAghQky3/QkhpDWhIBFCPALw3/hOfGkxmdY0AAAAAElFTkSuQmCC;" vertex="1" parent="1">
          <mxGeometry x="470" y="489" width="292" height="211" as="geometry" />
        </mxCell>
        <mxCell id="Csk-3HbRqVcOM9MHtjag-7" value="" style="shape=image;verticalLabelPosition=bottom;labelBackgroundColor=default;verticalAlign=top;aspect=fixed;imageAspect=0;image=data:image/png,iVBORw0KGgoAAAANSUhEUgAAASYAAAEUCAYAAACGdpt8AAAAAXNSR0IArs4c6QAAAARnQU1BAACxjwv8YQUAAAAJcEhZcwAADsMAAA7DAcdvqGQAACtDSURBVHhe7d0PeBTlvS/wL39UENHjUagWRUPQSNCeKkKLtY8kXkDjsZJyVdQeoKYUiGmLdM/pEXvvaR+E2z8reDCmFQwirVotNP5NL9ImVFGUiNpzJRghCX9EqfXRo4Aigtz39+47u7Obmd3ZzWZ2dvl+eObJzszOn102v7zvuzvf7fXyK1uPgIgox4ad/QX9s2P739Dr/fc/YmEiosCQwtTb3CYiCgx25YgocNhiIqLAYWEiosDJqCv33e/cgHff3WPmvBk8+DQsve9hM0dE5C6jwjTpG2VYvmKVmfPm5un/E4890WzmiIjcBacr1/ILfHPS5Wb6BVrMYncbUDtpFh7bbWbTtfsRhJy2l/P44SNIf7fqfPR2u/DYD23n7/S43I4dON18jqNs+8n6Y3d53pPY3TAL31yywcxF6GWe/t8zf068HyO/tSy5HKGGXWYuM10K09K/7MTFP12vJ7nt5JRTB+kWUDrTKaecarZ2IC/WBcBtj/0Zf5DpnrOw28srrDuGXI/wY7/GpCFmXlMvut+dhbvvvB5xizPl9rgcj22XrYIQQCkfew9T/yeL15fh7u+PNQvEBjQ8sNXc7il+HCNbuvf6G/39Fbh0/YJuvX7jCtPeA4ewdN1O/POXv6Anue3k9NOH4DcPPp7WdGXFJLO1g7d3oKP4LHzRzMqLd9Joc9tPu89AZbaKkgjK46Ko3RubgUsvifs/3t3wADDtuxhm5nuCH8cIjjMxacowrFwd3ypNh2NX7ifXnKOnbHil8S08tWQzRg69zCxxMPrrKG9fisVOzT/d9Le6Qpej1rEllVjhE+elmZ+4j4T7yHFumY7vdTmOuV9DrEvm3Ewdixpd1NR/yp3/Bl1/XB+X/diJ5ybrfowmbMXKW9Qyq8sR9zxYXRazn5bYOjlv3WUw8/ZzlSa2tTyxKxNlO06oIeEPk+M5JHJ6ru3sjz0b5+/wvLvahZb1qi6NOdPMK+oxLd41DTVjzLyT7j4nKY/R9XmIPe7Iutol8pzYhwKsY1rPceR5j3u+7cMSrueZyevPfhyX/+8vnoVhO3Zm3G2NK0xX3/Wy/ml15cS4n72of6bryBFg4+M7sOmPO/DO1v/GH3/1/8waJ+rF9Zg0/6YnPGj1JN2yFGffbnWFvovtC6wXtVfyxE3H+ktXRPahppour95Ux1H/Sbu+Hll3+0R0PPCwyy9lIrfHZdPyMFaedYft3GSbO1COczD1HrVMdznk/JpxqczrcwAeib5w1bn9DrjVnFvTgsuxGLc7nuvo75vtZf9NDzg8j/HPw61oVi9QS7JzsHh5rhNl8/xTeQtvtQ/DkGhzSZ3vIvWYJtu7dYmy8JykPIawPQ/q9YcH7F2hrdh+pjwnUnjjzyf2WpVWinr+NsT+4LRsWIPyKVK03c7T6f/L7fXn8vvR5fUrR1aGDMXZ7TvwtplNV1xh2vfpIfxx7pi4SZZ58fv5r+K5hztw6OARfP7559iwqhN//dNbGDz0RHOPVOQvnvWgzS/x7p3Yjon4SvTBXo/ry7firXQe7e4XsL59Iq6vtP2VTJTyOOo/yXphSSsIHdjt+ZfC4XHZyV+Wph/HtQy60Odn/oLJX6YFa9Cx6y2zUp3bXNP91Od2TqxFkHiu0YF4+YvoQI5T/F1UmudhSOU0tb2R9BwML891F1k8/zTtbligfilvTz7e1c3nxNMxNNvz4PD6iz4n+pgur1V5vpqeM4V8A17aYc7b7Ty9/n8lO6br6/cMnFGczu9JPMeuXCb++92PcfDjw3h80X/h2Qc7sPnZt/GlsjNxw//+qrmHR+pB3zrtnLjKXxDcHpdaHlZ/aW7FAv2icWxVaRNjg+gyxQ3eeiBN8ehA/ApMLTbL09LNc+iOrJy/XWQwuuOBSGv2m6pF0KG63d9L+12zZM9JpsfYhd07zM20jEXltA7dGpIxre1xY2k99H/n+vpNbJ2mJ2uFSVxV/WV8uu8gtm78G0ZcMgT/Y9r56NO3j1mbhOpbx5qtMg6wFcPOPEM9aNUcxBq8ZD1Y9eJ8pMlWuaOkOtv+wrQ8F/uLOuQSXFq8xqGJbeP5OGlye1wOhlT+GnerwrX9LYfzNOeX9DGkYh+I138p9dJ4uvm9FA3meZAXd+x59HAOXp7rTHk5/5Tsf8Wly2L7RVUt2mGqZdTlHdluPScej6FtxfqNZj+mJeP4+jPHdHutDhlTBqx/GA32sTS38/T6/5XimKLL61e3NG1v/KQprjCdcFxfXLloY9wky7x6uu419DvhOJSMOR1bXtiNPz3wOg4fOmzWJjF6KN6ympmTpus+a1g3L9V/rOkCRf7iSD/ZaYDT9K+t+6lGSbS5rbtSd+Bs669WXFW3eD1Omlwfl43tc07fe2CYaVaPxVdUUzk2+Bg5P9geg+vgtZvRN2Aq1F9r2XbRDpzt2OJQxzHjPHKMxSizPY9ezsHLc50hT+efypkYfan6vbUKgCfdfU68Ogdn74q0OqRldfbtbq+/yDFdX6vSzTprDZrOmmbrPrqdp9v/l/Prz/GYjq9fRf6QnDXUoQB7k9Env398+6340b//1MxFyBjTkHNPRvnUkejbtzf+vPJ1/Ne6yBjTuzs/0veZu+JK/ZMoZ6RLuAi4NZsfC+m2Daid9ADOuCc7n++Sdy9fGuvljYeeIoPqqt89N/PHk1FX7h9OOhk//9l/RKde6t+/LLgEE7/zJRxzbB/06t0Ll0+7ABdNLIoWJaJAkLG+S5vxvYxbNgEn3Sxr0DtHWpZI78DeYktfj+cxPb/qTex64wOM+edhGPblQWYpEcVko8UUeet/Zbu8zZ/DT9ZnCYPiiChwsvquHBFRNvTav38/W0xEFBhb2t5mi4mIgoeFiYgCh4WJiALH0xjTpk2bMGrUKDOXPRMmTMDuNK/yGzJkCJ555hkzR0SFRsaYPBWmiy++GPfee2/Wi9PIkSOxbt06M+fNuHHjsHnzZjOXqBnzRlSjwcyJyrotWFgmt5KtI6Kg8Dz4rYoXZs+erVtOXi14cicGzFyvJ7ntn1KEGrdgyxY1NYbQVj1PlSSLbZ2aWJSIgsnzGNP8+fM9F6cPPzmMhU/txE1jB+tJbjvp378/ampq8OKLL+Lw4cM4cOAAXnjhBVRXV6O8vFy3jhKn448/3mztQdEwlKANHZ1mnojygufCNHHixLSKk1g6/Vw9uVm1ahVmLpiJR/c9iqsevgqTVk3C6k9WY/bPZuO1117Dhg0b8Pzzz8dN0v3zrHktGiprUFVk5okoL6T1rpwUp6lTp+ritHfvXrO0q/Nu26h/Wl05cfqcrhdNrupchTv+dAfe2/8erjjvCj39fd/fccfaO7Dk+SUYMGAAevXqZe7tVSvCFSMwYoSaqoG6uP6abd0IexePiIIkrcIkLaWVK1fqltPAgQPN0q4+Ul25bT8fEzfJMrumbU14+o2ncec37sQHH3+Ab4/5tp7ktix7YvMTWL9jPY455hizhVf2MaZi1I6YjPpoV84+xrQQHGIiCibPhUmKkrSUpChJy6m77m+5H3v27sGNv70RHx74EFfXX60nuS3LZN3yjctx3HHHmS0yUFSOitJWtG8380SUFzwXpmwWJdG6pxVPf+dpzBw7EzdceAOeveVZPU25cApmjZ2l173+9uvo3TutRl28ziY0tpai+GwzT0R5wdNvfd++fdMqSif274PhP9oYN8kyJxIyd0T9sxyR732ypDu8pNnGkSoaUdG42jb4bR9jGoHJsT4eEQWIpw9YrlmzJmstJcvU301Fy87kgdBjho7B8muXxw20z5kzBytWrDBzRFRoPH/AMttFSUwfPR2nDTwND33rIZzU7yQ8WfWknuT2Qzc9pNfdPOZmPPjgg7oYWdOgQUzBJCp0Oc1jWvzsYv3uW79j+uGiIRfpLt2ru1/Fgc8OYNL5k/CDr//A3JOIjhaer5XrSeva1+l33zbviVz/dv7p5+uW0mXDLtPzRHR0CURhIiKy8zzGRETkJxYmIgocFiYiChwWJiIKnJwOfjNal4gS5fxdOf+jdWtRHHeJinBbTkS50K135To7k19nFsxoXSLKBxkVJolAue6668xcV4zWJaLuSLswSVGqqqrCvn37zBJ3jNYlokykVZisovTpp5+aJc6CG61LRPnAc2HyWpREcKN1iSgfeCpM6RQlrxitS0RuUhYmefdt1qxZWS1KgtG6ROQm5W99UVERWlpazDeLxE9u8i9al5G7REGSsw9YMlqXiJzkNPaE0bpE5Canl6QwWpeIEuX8WjnBaF0isgtEYSIissvpGBMRkRsWJiIKHBYmIgocFiYiChwWJiIKnIIsTIc+P4IlL7yBL9f+EacuXIXRv1qD376WyWUmnaifHLtUZcTkerUk30mUsEviQvO82GMdkaXkz856TGbCA6WpoArTJ58dxqa330fNEy146s13sKhiFF6adQVuu6wU4efewP/5i1tWuAP9C1WB9hrb9YFhoCkwOb1JCkwm5PFKfpX1WBuL0ZGNx1pUhdVbmKdO6SmIwiTX/YbXb8E5i55E9RMbsemd93Ff5VdQOvhEDDi2Ly4ZOggrrxuLuhffxDt7PzFbJaNaSqEwSqJfZGCoX7KqQs2d296O1tJiRIMYCvmxUuAVRGF64JUO/N+t7+BPVZfj8W+Nw5P/Mg7H9ol/aIMH9MNYVaDmN7+O1r9/ZJa60HEplRif7BdTt6hi3bx50daFacnUx7pFsbSCZOuUuH3au1LxXcp5zbIf+TYYk4pgHdxte9vyyfUdZmGCsvGobA0j5NQEc9xv5LHMmzdZLZuMyer8Ys+BIt1C3fVNbNklPhZrsdMxXO5LBa8gCtOvN27FgvFfxj/0i0+7LP5fqm9i+zlpxJno3asXvvGbdXh8yy69zJW99dCF+mWriLSoIt0e+TYW+y+fKhjt4yPr6irRGl5mftGE2zrZp8S0mH3WAbV6h/LLWYFGtU4vV9PCsjIsVHeotNI6dbPObfv4cw2jMe7rrWJkn7J9RUIRcNuvaEVbcVgtX43VNZVoWBt7lM1rG1BZU4X4HpzTY5HlLsdoXoZwSV3CfeloUBCFac/+AzjjxP5mzl358C/gx2Xno/6bX8V//Pl1s9RFaztcgy87O9CmykK0RaW6PTWV9qRMVTBmmJXSEon7phaXdXqftlyoatUekh2a1ltNqkEa1+3V8tIQrEMWVdWoY7opQtVqVQR0oTXFyW2/Wikqys15yWNpWKtKjGjG2rbYMaPcHovbMc4uRmlDNfOxjkIFUZjOG3QiWt56z8xFJLaWrJ+i6OQT8N7+JImcOpK3AbYGgE8qY4PPMqXdROju9oYqtOFQqa0F5GW/ZZgRatMtnc76WrRVlCe0llJxOIYeOJdWXiihFUeFriAK00/KL8C/P/Ma/tL5N3x6OPalB+0/XRydLPs+/Qy/eLYVE4afZpY4US0H6ZpYrQZLZz3qZV5/X52tcKnltQ0pxqRSMfuMdZMMUyS7LE/kur1a3hrGMnOuUjQcu3LN6rFFN+1EU2Or6s2qzqzbfh0UlVcAjcuwrLHEuYXn9lhSHKOoajUaVaFs4xcEHjUKojB99cxTcf/ksVj+SgdG3fNHnHBsXxzTpzc+M0Xq4OFDOLZvX738a/euxf6Dh7DoqlF6nauyhdEuje5eyBRS3UFdfMqw0L5Oj48sVEu7I7JP1Z+JHU9XRele1aHEtjxSLMswXnUfY4Pfbtur5XWRIivLQqhw7sqVDUO71ZUaUaHHdlbr4uK2XwdSeFSBaSgZr7Zy4v5YHI9h+1xVRdil2FFBKtjYkyvu+QXGDC3CtLGXYcWGddi0awcaq//VrCWioCro2JNlN1ahZWcnvrTg3/Hyzu2494abzRoiCrqCD4obcOvN2L94uZkjoqBjUBwRBRKjdYkoUNhiIqJAYmEiosBhYSKiwCn4wvTmm29i1qxZGD16NK688kq8++67Zg0RBZWvhWnTpk3mlj/a2tpw00034bnnntPzCxYswODBg/VtIgouXwvTzJkzfS1Od955Jz7++GP0798f99xzDy666CKzBtizZ4+55aQZ86xLI/RkjzTJMZ1bFKDzIeoBvham/fv3Y/bs2WkVpwVP7sSAmev1JLe9OnLkCF566SV9+4wzzsDIkSP1bbFhwwbcfHOqT4KbrKMtW6Av4wrlKu9biqStEOkr7hlVS4XN9zGm+fPney5OH35yGAuf2ombxg7Wk9xOR69evfTPrVu34tprr9WFUbp1t9xyCz76KEWKpY3OMGptRBNbKUS+8L0wTZw4Ma3iJJZOP1dP6ZAW0xe/+EUzB+zYsQM33ngjampq8Omnn+LSSy81a9IVacFEImVNBGxcLKw9KsW0dprt0ba26uYYJ2vfvyxPjNBNaEE57oORtJTffC9MQorT1KlTdXHau3evWdrVebdt1D+trpw4fc4G/TOZzz//HHV1dbjwwgv1+JJl27ZtOHToEE4++WSEQqp/5pHOMCqtgBXWGIuUlagTVShSxezWqq6gWaf6hGadbJcqslbWJUbo2rnsg5G0lOdyUpikpbRy5Urdcho4cKBZ2tVHqiu37edj4iZZlowUpXvvvVcPekuXbcKECRg+fLguUAMGDEBFRQUaGhpw6qmnmi3cxKJeJQuobrU9v9oWKatjYVPE7IbNtvZ1XiNrk2EkLRUo3wuTFCVpKUlRkpZTNllFad++fbjhhhtw33334dxzz8Vjjz2Gl19+GRs3bsQvf/lLDBo0yGyRTGzwO9IyyoZOdLSZm1o2onAZSUuFx/fC1FNF6fDhw6itrdVFacqUKVi+fDmGDh2KadOmRQfBe4SJhXWP2W1FozVqbv9aqDQia10xkpYKlK+FqW/fvmkVpRP798HwH22Mm2RZIilK8jmlAwcO6KJUX1+vu289XpS0SCyse8xuKUraIy2XEXosylrnNbI2MULXjpG0VJh8jT1Zs2ZN1ltKwipK8pGAZcuWobS0VHflck/eQatFcSM/d0Tkle+xJz1RlKS1JONWsu+lS5figgsuCEhRIqJM5eRduWzq06cPrrnmGvzqV7/SF+ped911Zg0R5SsmWBJRoDDBkogCiYWJiAKHhYmIAoeFiYgCh4WJiALH13fl5PNGo0aNMnP+mj59urkVb8WKFeYWEQWB7+/K9WS0rhQe++TkrrvuipvcySe2zSUeZvJ0Iax1KcjkHKVdMnaXCoSvhSmTaN102AuOJArYp/TZ0gXqKtFQbYWwuVHFrLoBlZLLFBeR4iPG7lKB8H2MKd30ykAoG49KtCH1RfqlKD7b3CSijPlemOSatp4qTnPmzNGTmDRpkp5uv/12PbW0tOBrX/tadEpL89r4BMsucbbS9YtF4EYD2lJG55plSe5XXx9LCogPfnOKzzXbmLs1z4utjyUTMHaXgi8n78pJcfISreuFfPuJTFJ4ZJLB7MQB7XXr1sVNwipg7mzJkGvH27pn6pe/S5zt2Vhoi8BdrftSTvezCktiNK/7/cLt6timO9kaXqbuLaS4VKBRbafXqckpY65sodmnnFtDbaRgMXaX8kBOCpO0lLxE63plLziSWmmf3DgVsHhmjKkxhNKGtaYgKEkjcW28RuemuF9ohqkc9u6kCZxLmbMUzWWS1pzB2F3KA74XJilKPZViKeRrmexTtxVVIRxqS0iJ9BqJm+37pUG6h9Uw+21EqNQsZ+wu5QHfC1NPFKVx48bpScydOzduygb5XrkS69tNvEbiZvt+dkXlqChNsc32drSWFkOPxesWll4axdhdCjJfC1O60bpebN68OW5yYhUuewFLTxlmRL+N13skbnbvZ1eEqtV1qljGtumySdkM1SYKo0LWh9pRYrWYGLtLeaAgonWJqHDIJ78ZFEdEgcKgOCIKJBYmIgocFiYiChwWJiIKHBYmIgocFiYiChwWJiIKHF8LU15lMBFRzvhamHoyWje7JNfIXB5iptglH/GZRzFuyy3xOUi+x+8ydpfyiK+FKZNo3QVP7sSAmev1JLfdbH1vK2atmoWLFl+EL935JVQ9UmXWAAcOHcA/LfqnLreTs0XrNobQljJaNwldFCrQXmP2J1MYaMp4hxlg7C7lEd/HmNJJr/zwk8NY+NRO3DR2sJ7ktpOO9zsw5bdT0Kd3Hyy7dhkapjdg0gWT9DopRBcuuhAHDx3EiF+MiN72VpwMnQDgJVrXiWophcIoqUsIZVOFoioL6SZEhcj3wiQX8aZTnMTS6efqyc1/PvufKP7HYtxdeTdGnTEKxacU4+rSq/W6fn374dW5r+LYvsdiy79tid7+69y/6vWeSLRuZU1mrQ0T6jY+WRGKi9Z16Da6xet2ieSNdBej95EkgWiXMaGrmekx4zjF9DotI0qP74VJSHHyEq173m0b9U+rKydOn7NB/7Rr2dWCCSUT0LtXNh+OPVUSqOtOeJuVi+RIFYKKSIsq1m20jwW5xevKdomRvDBxKHIftV7O2/EbWzI9pp0UIId4X0b3UhbkpDBJS8lLtO5Hqiu37edj4iZZlujg4YPo27uvmYuXeVfOPsZUjNruDBy3tsMhfDdCR+vaWlSqi1dT2YpYWq9bvK5bJG8ZFqoiVR2ppmrOQabHtHOL92V0L2WB74VJilK2UyzPP+18NG1rMnPxstKV04mR9l/cNJi0ybU90qXpgUje7mJ0L2WB74Up20VJhMaF8MpbryD0ZAgv73oZf337r/jNy78xayPFySpE9tue6dZBpt8ZV4SqGvnCzIRf0s561Mu8idaNFi61vLYhxZiUcI3kNV046du5vZOY6TFl31bLMUW8L6N7qTt8LUzpRuue2L8Phv9oY9wkyxJJi+m+6+/DOx+9g1v+cAvmPD4H7e+3m7WZsnWT9FiO/a122zo1xbotLsvLFppxnNi6ESGgXBeCSLRudJ0+lksXLI5TJK8qdpOr0RaaodZKHHAbqh0/L5XpMe1c4n0Z3UtZwGhdIgoURusSUeAwWpeIAomFiYgCh4WJiAKHhYmIAoeFiYgCh4WJiAKHhYmIAsfXwpROQBwRHb18LUxHZ7Rusn11k85U6kbqQUpuj4moZ/lamI7aaF37vtSUtRAAz3G5LDCUX3wfY0onvbIwonWJKF2+Fya5iDed4iTyOlrXlWnFuEbYOkXURraZN2+yWiYtOHtLyNxujkXmRvYny6vRYCUfmH5k87zYvq1lmi1yd3J9h1lo2NbJ5N4lZeQudY/vhUlIcTqqonXj4lDsXUK13DHC1iW2VmtFW3FYLXOKKVH7qwXCso2ORAmpolWGhVvqUGl1J82OyhZG9rtF1jXUxoqbLXI3jEZV0Czx67rG8VoYuUvdl5PCJC2loypaN26MyV5Q1HLH2FyX2FqtFBXlbk03tb+wyfjuEpebIJqbJK0pQyJ3S0OwTqmoqkadk5Eyjtdg5C5lge+FSYpStlMsAx2tmzOd6GgzNxNJl0ynXEqhbESo1CzvSYzcpTT4XpiyXZREsKN1M5AittZdKxqbzDam5eIYl7u9Ha3WN7fo++ml6rjDUNIaxjJTNDrra2OtqaRxvLaxLkbuUhb4WpiO2mhd1+VuXGJrUypFSXukRTJCjwdZ3cYyjFfdLn0OsqOyGardEkaF3C/UjpJoi0m+YSWSTy77CKEi1pWTdZ7ieBm5S93HaN2CIa2WWhTHFVCi/ON7giWLEhF5kZN35YiIkuGXERBRoPDLCIgokFiYiChwWJiIKHBYmIgocFiYiChwfC1M6QTEEdHRy9fCdHRG6xoJWUYjJtcj1YUpWSWXhCQcUzKZYplN6pxcrnvprJf8J+uxpXicRFnga2HKJFrXq0BH60pR0teWWdEnW1BX0o70wwq6URTKFqpjxi7Q1RfhtoUQjl6/UorSNiuXya4Zy8LWVb5E/vB9jCnd9Eovgh2t24n6kFxQG38NW9lCpwtge1bZDFVgayOtpuZl6pxqTHaTUVKCWDqBRad3Vtou5iXqeb4XJrlerjvF6f3frcaOmpCZiwh0tG6y+BFLXDfPapklRtFKa6lrRG5iFzGxyxmL4VWKqtS2jQhNnoxq1HVJkSyeUYOSaIqmUOdQ24bQjPFmPh2J5++2jKgr3wuTkOLkJVo3kS5K3/tXDLx0rFkSEfhoXSv7SImM18h+bWM29m5eHSJZRl2iaJ0icmXbZHG3XWN4JZWyRPXMosmZcSQexZ65pIoqKuAamOlKChDjdSlzOSlM0lLyEq0rLSMpRsIqSmfd/Uv845TJepkl8NG6rbHxJAlK0znbZj4SWWsvgqpNJFGZXqJoU8bddo3hbZ6nqmxlCcIh58H3VN09T0wrkfG6lCnfC5MUJa8pltIykmIkBcqtKIlAR+t6Gp+qNDG3ZpKmRE9E0TbPQ3VbCDMWRoLiogPhdvJYVTupqTkyOO7YsMoU43XJI98Lk9eiJKQISTF6/5E/uBYlEexo3TKoRohqEbm8q2ciazOKok0ad5vIjBfpLysoQlXY7Z1Gta5Gtaiqw1DNrTRaS7Z3DBmvS93ka2FKN1pXSDEauelZ16Ikgh6tq7tvdUC1WS7fTNIWCpv9RSJr1YbR7fTAtmMUbUJErtk2ddyt7K4C4RLbAL7u9jWg2qnZUqZaVKVu39Ii3B6/hfG61D2M1iWiQJE8JgbFEVGgMCiOiAKJhYmIAoeFiYgCh4WJiAKHhYmIAoeFiYgCh4WJiALH18LUEwFxRFR4fC1MR220ru1SjFjeUhp05lI30g0085icLkFR4uNziXLL18KUSbTugid3YsDM9XqS224CG60rRUXynKzkgMZidKS7I31VfnwCZmYYn0v5wfcxpnTSKz/85DAWPrUTN40drCe57STQ0brb29FqC4qTIlOVzSiRNDE+l/KB74VJLuJNpziJpdPP1ZObQEfrlo1HZWsYIac+kqdIXVmW0E1MEadbXx/rOiZe+e81Ple+QcXaR6z7l3z/ztsotvOdXF+f5LFYz0HkOHGxwHGcniOnZZSvfC9MQoqTl2jd827bqH9aXTlx+pwN+qddsKN1JRJX4kgiESBxRcRTpK65e5RslzxON9w+3uyzEq1xRUh4i88tW2j2L2mbDfbun/v+nbeJP9+wOlqDvrdweQ60rrHAEVKAGNtb6HJSmKSl5CVa9yPVldv28zFxkyxLFPhoXZ1PJPuJZCfp4pRppK6HON1onre01hy6oJ7ic6MD9vIFCHZJ9u+0jZxvaSwJUzLHU8YKa11jgTXG9h4VfC9MUpTSSbH0ItDRunaqiIRDpWiINld8itRNlCo+N27AvhHqlFPLZBvN4TnIhB/PG/nG98KU7aIkAh2tq375Y3/EO9HU2IpS2VGmkbppxem6SRGfax+w149dL03ObRs539ZYvnhnfW2sNZXiOYiJjDnpuzG296jga2FKN1r3xP59MPxHG+MmWZYo0NG6ZcPQHl0m8bZ1WK13lE6krp33ON2kypLE58o61faokP2H2lHipfXjuo0637pKNJjzDam2WuzdP5fnICnG9h4NGK1L/pIuX0U7aroMahNF+J5gyaJEMtge97kuIgfM/KYeFnl7P/bBchnsZmuJ3PHLCIgocPhlBEQUSCxMRBQ4LExEFDgsTEQUOAUz+B0KhfDee++Zua769euHW2+9FSWS+0FEgVVQ78pNnz4dd911l5nras6cOTj22GMxd+5cnHfeeWYpEQXNUfeu3MGDB7Fo0SK88cYbZokfbNd5FRLrEpDJ9ejUmUoF+BgpZwJfmLxG63olxUlaVkeO8ONbmVPFtroBlZKxtLoKRfrK/mxE/xJFBLoweY3W9UKKkTUdOHDALKXMZZi2QORBXnTlUkXrinvuuQcnnXQSBgwYgD59uiYQpMd0v5pjsa+eImRTxrvKfmPbZC+K1kusrMt94vZn39Y8B11idGW5BMFFkhRiy5zPscv5E3kQ6MLkNVp33759uPbaa3HJJZfoMSQZ5O5+cVK/eLVAWMLLdDRHKPrL5Rwh6xL5GiXrdZJaNAwta1G0KWNl3c4t/ljeYnolKlidr0n4jES42CU7fyJvAl2YvETr7t+/HyeccALuvvtuXYwksnfJkiU47rjjzD0ypX7xwiZyNjG+1jFC1iXy1WgMRQpDXNHIVhRtyjhel3PLQkxvF8nOn8ijvOjKJTNlyhRs27YNxcXFGD8+8k0fTz31FI455hh9Ozs60dFm3VTdlLQjZOXS+lJbnrWS0X5EjuJ4iXyU94Xp/fff159h+slPfoJHH31UL+vdOxsPqzX2/WumxaFbFq4RsskiX0tREV6NOthaNT0QRRsfK2sb93E7t6zE9CZIdv5EHgW6MHmJ1r3mmmvwwQcf4Pe//71ZEonwlWXdazWVoqQ90gIZocdMTIZQmVuErEvkq03ZQhkfUuvlsz+u+8kgijZlrKzbuUX21+2Y3jjJzp/Im7z/5Pdnn32mx5Sk+9arVy9dlHbv3q27ditWrNBjTXIfO/kU+P3336/v70xaG7Uojsv5zhHp8uVzFG2+nz/5riA++S2toh/+8Idobm5GU1MTHnnkEZxzzjlob2/XX6r58ccfZ3m8yV/5HkXLKF3KREEmWEo3TsadZFB8+PDhaGhoQFVVVfTT3qeccgrC4XBAW0yRt/bzN4o238+fcq2gLuJNZBWnk08+WXfpiCg/FHRhIqL8VBBjTERUeFiYiChwWJiIKHAKZoyJ0bpEhcH3we9NmzZh1KhRZi67GK1LVBh8H/yeOXOmLk654jVaV3KS4i8nsV13ZpHLQJJeLeuwjV8Ye0t5ztfCpFpnmD17dlrFKRfRumXjK9EQvbJVMXEj0Yt6lc6ONpQGMsJRFUTG3lKe833we/78+Z6LU86idSXfqK0DVhnqbGpESSiEWFBRJ9QiVJQH9bedsbeU33wvTBMnTkyrOAnfo3UlJgSNiDSQIkWouHwYShrWqvaI2I721hIMs+qS7i6ZK/SjcbfG9tg61yA3fRmHtb2tGxm3X3v30nQTGXtLBSonHxeQ4iQX2Epx2rt3r1naVe6idYswrMRKclRFSJWp8qIyjK80CY7Na9FQOd5c/6V+8Z3ibjX3eN4Yxt4SJcpJYZKWkkTgSstp4MCBZmlXuYzWjY4zSREqGaYjdlUPT48zxY0vucXdaknieS2MvSXqwvfCJEVJWkpSlKTl1F09Fq1rxpmaVRGqNNWhqLwCaG9yGF9yiLvtwhbPS0RJ+V6YslmURI9F6+pxpjCqw4gNJEtsbEMYYfv4UtK4W5d4Xvu4D2NvibrwtTBJumQ6RSm30bpFKK8oVT0mGV8yiyDjTOpHdHxJuMTdai7xvHEYe0uUyNdPfq9ZsyZrLSVLz0TrHiXkHTrG3lLA+P7J72wXJVHo0bo9ibG3FFQFGRTX/WjdQsXYWwo+3y/i9ROjdYnyU0EXJiLKT76PMRERecHCRESBw8JERIHDwkREgeNp8Fuub+uJSNwJEyboD0OmY8iQIXjmmWfMHBEVGs/vyl188cW49957s16cRo4ciXXr1pk5b8aNG4fNmzebuURyDZrkEcWUhhod4j/UPeeNQDXqEi64le1z9dXgRCQ8vyunildawW4i25G43kWyiCJX+ptr0BKzueWC2LZKVLbVMiSNKIA8jzGlkzrpNRK3f//+qKmpwYsvvojDhw/ryNsXXngB1dXVKC8v162jxOn44483W3sRuRC2NJo8GSFRuaiYgRkVkXwlIgoWz4VJrnNLpziJVJG4q1atwswFM/Hovkdx1cNXYdKqSVj9yWrM/tlsvPbaa9iwYQOef/75uEm6f2kxsSKx7xaI5XXrfKXGJrWEiIIkrXflpDhlMxJ3Vecq3PGnO/De/vdwxXlX6Onv+/6OO9begSXPL9H53Vm/nk1ykXRUrrodl+1NREGRVmGSllK2InGbtjXh6Teexp3fuBMffPwBvj3m23qS27Lsic1PYP2O9VlKBoh9a0ikG1ceibvVmUtA2EpOI6JA8FyYpChlM33y/pb7sWfvHtz42xvx4YEPcXX91XqS27JM1i3fuLzb2d2R5EgrcbIZy8KtaLWFslXIpfYJY1BElFueC1M2i5Jo3dOKp7/zNGaOnYkbLrwBz97yrJ6mXDgFs8bO0utef/v1bsbkWt8KYqI95IsFSkNotOdzb2lEKG4MiohyzdNvfU9E4lp6qX9H1D9L3DfkZjS8ZPvGEv2ZJOvrkKQuNaA02o2zRCJ0Y9+8a98+2XfBEVFP8fQBy56IxJ36u6lo2dli5pyNGToGy69dHjfQLrG4zFciKlyeP2CZ7aIkpo+ejtMGnoaHvvUQTup3Ep6selJPcvuhmx7S624eczMefPBBXYysadCgQWYPRFSochoUt/jZxfrdt37H9MNFQy7SXbpXd7+KA58dwKTzJ+EHX/+BuScRHS08XyvXk9a1r9Pvvm3eE7n+7fzTz9ctpcuGXabniejoEojCRERk53mMiYjITyxMRBQ4LExEFDgsTEQUOJ4Gv+U6OUbrEpEfPL8rl3fRunI93Ooqc+mJ9bXY1tdhJ84TUZB4fldOFa+0AuJE7qJ1iSjfeR5jSie9MjjRukSUjzwXJrleLp3iJAIRrUtEeSetd+WkOOV9tC4RBV5ahUlaSvkZrUtE+cRzYZKilM0US9+idS2lxTCx30QUcJ4LUzaLkuiZaN0yzAiVqp2HEf1+geZlkFjvrsmVRBRUnn7r8ylat6hqNeoqgYZqE49b3eD6NeFEFEyePmDJaF0i8ovnD1hmuygJRusSkZucBsUxWpeIEnm+Vq4nMVqXiOwCUZiIiOw8jzEREfmJhYmIAoeFiYgCh4WJiAKHhYmIAoeFiYgCh4WJiAIG+P/9D/jsioy4cwAAAABJRU5ErkJggg==;" vertex="1" parent="1">
          <mxGeometry x="470" y="170" width="294" height="276" as="geometry" />
        </mxCell>
        <mxCell id="Csk-3HbRqVcOM9MHtjag-5" value="" style="shape=image;verticalLabelPosition=bottom;labelBackgroundColor=default;verticalAlign=top;aspect=fixed;imageAspect=0;image=data:image/png,iVBORw0KGgoAAAANSUhEUgAAAScAAAKzCAYAAABcRcuJAAAAAXNSR0IArs4c6QAAAARnQU1BAACxjwv8YQUAAAAJcEhZcwAADsMAAA7DAcdvqGQAAGJjSURBVHhe7Z0LeBvVmfffXCBACGnKrTQJxHHARFC+bQPZcumCDSagbhe8/uhC6QKL1w0xLpegpduQbuFJybZUXArGLLiGANuyXLyiS6p+qanNlkuAENpC41QQ2yGXlluTJiEkBJJ85z1zRhpJM6MZaaQZjf+/PPNYc+auWH+fczTnN6M2bdq6d2jtOwQAAH4zfdrh8idnkgwnOQcAAAGBw2m0eg0AAIFi1CuvvomaEwAgcKDmBAAIJAgnAEAgKbpZ941/vojeffdtNeeMww77DN3340fUHAAAWFN0OJ3/d/V0/5In1JwzLr/s/9KT/9Ov5gAAwJpgNetW3EJ/f/6ZarqFVqhia5ZTx/lX0JMb1axbNj5KMbPt+Tyue5Tc71acj9xuPT15neH8za7L6tiBo8T3OI1hP55fu8X7bsPGxBX093cuV3MasszR/3vx74nzY1Q3K+48k2KJ9WquOEzD6b7/XUcn3vScnPi1GQcfcqisCbmZDj74ELW1CfwLezPRt5/8Ff03T3cfRRud/JaVwuR/oPiT/0HnT1bzEvGL919H0V23/gNlFReL1XWZHtuIV6EQQApee5kR/ye3P1dPd111sipgllPiwTfV63JRiWN4RWm/fyddtYROe+7mkn5/88Jp285P6L5n1tHf/tXhcuLXZhxxxGR6+Cc/czWdGz1fbW3CH9+iodqj6LNqln+Bzz9Jva4kG6dQk1fBxATlukCajS/3E512Stb/8cbEg0SXfoOmq/lyUIljBIepdP6F0+mhnuzaqRssm3U3nne0nLzg1eQGWnrnKjruyNNViQknfYkaBu+j282qgrIZoDeLzqQO0xpVbtLnznOVP3cfOevwca68jL6Zdxy1XiLTPDOvsp5M7TLYxH/MrdeTzCDL6zIeO/fceNlC6qM36aErRZne/Mh6H/Tmi9rPiswyPm/ZfFDzxnPl6rZentusSWM4TiyR88fJ9BxyMXuvjRiv3YvzN3nfLVlPK54T2TR7qpoXiGu6ff2l1D5bzZtR6ntS8Bj570PmurVlHXfye2LsFtCPqb/H2vue9X4buygsz7OY3z/jcSz+vz97FE1/a13RTdi8cPrKHa/In3qzjjnj+y/Kn27Zu5fo5Z+9RSt/8Rb96c2/0C/ueV0tMUP8gj3JVcHLci5cvFFX3kfTbtCbRd+gtTfrv9hO4TfvMnrutCXaPsTUnvcbXOg44j9q/Ze0ZTfMoaEHH7H4YOZidV0GVjxCDx31PcO58TbfowY6mi65W5TJ5gefXz+dxvPyHIgeTf/yinP7L6Jr1bn13Xwm3U43mJ7rSVep7Xn/fQ+avI/Z78O11C9+SXXszkHHyXudi5fnX4gNtGFwOk1OV5vE+d4mrqnZ2MTLxYP3pOAxGMP7IH7/6EFjs+hNWjuV3xMO3+zzyfyucm1FvH/LM390VixfRg0XcnBbnafZ/5fV75/F5yPv95ePLJh8JE0bfIv+qGbdkhdOH3z0Cf1i/uysicuc8Pii39CzjwzRJ7v20p49e2j5E8P0u6c30GFHHqTWKAT/5dMvXH2QN66jtTSH/jp9wf9A/9DwJm1wc8UbX6DnBufQPzQZ/lrmUvA44j9K/+Xi2hAN0UbHHwyT6zLCf2H6FmbVEPKQ56f+kvFfqJuX0dD6DWqhOLf5qikqz+3oTM0g91zTnfP8l9EEPk7tN6hJvQ+Tmy4V2ytsz0Hh5L3Ow8Pzd8nGxM3ig3mDff9Xie+Jo2NIDO+Dye9f+j2Rx7T4XeX3q+9ZFebL6aW31HlbnafT/y+7Y1r+/k6hKbVuPifZWDbriuEv735Iuz7cTT+77TX69U+GaNWv/0gn1E+li/7ti2oNh4gLv/bSo7P+AoQCq+sS5XHxF+dauln+4pjWriRzMh3rPGV16DqAq+XpzvkldEmtKndFiedQCp6cvxGtg3roQa1W+/eiZjAkmuDfdP1tmt17Uuwx1tPGt9RLV5xMTZcOyVoR93GtzepbK9P/neXvb24t1R2ehhPz5ba/oo8+2EVvvvwOzTxlMp116fE0ZuwYtdQG0dbOVGG5X+BNmj51irhwUTWkZfSSfsHiF/TRPkOCp+GUNvylWfFs5i/r5FPotNplJtVtA46P4xKr6zJhctN/0F0ivNZuMDlPdX6211AIY+e8/IspS7ORVfH7KKHeB/4Fz7yPDs7ByXtdLE7OvyDGv+bcfDF8WEXNdrqoIeV9U1vSe+LwGJI36bmX1X5Ujcb0908d0+p3dfLseqLnHqGEsW/N6jyd/n8VOCaT9/sra5yGL4NckhdOB44bS+fe9nLWxGVO+Xnnb2m/A8dR3ewjaPULG+npB39Puz/ZrZbacNKRtEGvcp5/mWzDxmVVU/znquaQ9peH281mnZ6qva2vJyon6aq3bFZ9j6bpf72y0l3H6XFcYnldBgz3QX3zwemqin0y/bWoNmc6JLXzI8M1WHZoW3HSRXQJib/avO1tb9E005qHOI7q9+Fj3E71hvfRyTk4ea+LxNH5F2IqnXSa+OzqIeCIUt8TpxxN09ZrtQ+uYU27wer3Tzum5e8qN7mOWkZ9R11qaEpanafV/5f575/pMU1/fwX8x+SoI01C2BlF3yG+8IZr6Vv/epOa0+A+p8nHTKKGS46jsWNH068e+j299ozW5/Tuuq1ynflLzpU/AfANbh7eRnStl7eMlMxy6jj/QZpytzf3f/G3mi+d7OTLiHLBHe2iDT6/+Ospuln3qYmT6Aff/256GiX+/ePNp9Ccfz6B9tl3DI0aPYrOvPRz9IU5NelgAiAQcN/faf30zaJrOAGHm1x6R7hPrLiTWwnGmpt7KuJzev6JN2j9HzbT7L+dTtP/6lBVCgDI4EXNSbst4KFBvgXAxzvwPQKyOQBAIPH82zoAAPCCUdu3b0fNCQAQKFan/oiaEwAgmCCcAACBBOEEAAgkjvucVq5cSbNmzVJz3nH22WfTRpcjAydPnky//OUv1RwAIGxwn5PjcDrxxBPp3nvv9TygjjvuOHrmmWfUnDPOOOMMWrVqlZrLpZ8WzGyjhJpjmjpX0+J6fmW3DAAQFFx1iIsQo3nz5skalFNufmodjZ/7nJz4deWIUCy5mlavFlMyRqm2BSKWdAzLxIRgAiCYuOpzWrRokeOA2rJjNy1euo4uPvkwOfFrM/bff39qb2+nF198kXbv3k07d+6kF154gdra2qihoUHWknKnAw44QG3tgJrpVEcpGhpW8wCAqsBVOM2ZM8dVQDH3XXaMnKx44oknaO7Nc+mxDx6jLz/yZTr/ifOpZ0cPzfv+PPrtb39Ly5cvp+effz5r4qagY/p7KdHUTi01ah4AUBW4/raOA+qSSy6RAbVt2zZVms+x335Z/tSbdcwR1+QPtHxi+An63tPfo/e3v0/nHHuOnN774D36Xu/36M7n76Tx48fTqFGj1NpOGaB4dCbNnCmmNqLOrLabYdlMY3MPABAkXIcT15geeughWYOaMGGCKs1nq2jWrfnB7KyJy4z0remjn//h53Tr391Kmz/cTP80+5/kxK+57H9W/Q8999ZztM8++6gtnGLsc6qljpnN1J1u1hn7nBYTupwACCauwomDiWtMHExcgyqVB1Y8QG9ve5u+9p9foy07t9BXur8iJ37NZbzs/pfvp3HjxqktiqCmgaKRARpcq+YBAFWBq3DyMpiYgbcH6Of//HOae/JcuujzF9Gvr/y1nC78/IV0xclXyGW//+PvafRo1xW8DMN9lByIUO00NQ8AqAocf+rHjh3rKpgO2n8MzfjWy1kTl5nBorq94p/OXn6mlI7b7iaJoV8pmqRossfQIW7sc5pJzZn2HgAgQDi+CXPZsmWe1Zh0LvmvS2jFOnvB9OwjZ9P9F9yf1fl+zTXX0JIlS9QcACBsuLoJ0+tgYi476TL6zITP0E+//lOauN9EeqrlKTnx659e/FO57PLZl9NPfvITGUj6dOihsGkCEHZ89znd/uvb5bdy++2zH31h8hdk8+43G39DOz/eSecffz5d/aWr1ZoAgJGCq7F15eSZwWfkt3Kr3tbGyx1/xPGyxnT69NPlPABgZBGYcAIAACOu+pwAAKCSIJwAAIEE4QQACCQIJwBAIHHcIc7j6qDpBQBUAlff1oVH09tBtVnDWRircgCAH7j6tk6EmCvJHBNMTS8AoBpw1efkxoIJTS8AoBRchROPr3MTUAw0vQCAYnD9bR0HVHVregEA1YDrcOIaU3VregEA1YCrcOJg8tKGCU0vAMAKV+HkZTAx0PQCAKxw/KkPv6YX+l4AgoTjmzCh6QUAVApXN2F6HUwMNL0AACt8l81B0wsAyMXV2LpyAk0vAMBIYMIJAACMuOpzAgCASoJwAgAEEoQTACCQIJwAAIHEcYc4j6uDphcAUAlcfVtXzZreSCxJPSZCp/4FM6mNOml1llIFyl4A/MbVt3UixFxJ5phAaHpXd1JdPEozF+SIeoe7qSPVRE2pDuhUAAggrvqc3FgwA6PppXpanIxRJNGb5REf7ksSRVupNUqU7EM6ARA0XIUTj69zE1CM75peRjqdEtSbTqdhktnUUCMWyXQSJQCAIOH62zoOqOBregvAjieKksgmLbjEHCpPAAQL1+HENabga3rNyAjntCZdA2n93TXElad4Fx4eBUCQcBVOHExe2jAroullpA2zjqbLNOqnrvgADXAnuRLLRcU85fRJAQD8xVU4eRlMTEU0vXxrQDROdZ2LSXvoby8lIjFKym/y9ClJsaw+KQCA3zj+1Fetplfes6Q/jpyzKUGRdJNOh5t2EVF50tMJyl4A/MbxTZjQ9AIAKoWrmzC9DiYGml4AgBW+y+ag6QUA5OJqbF05gaYXAGAkMOEEAABGXPU5AQBAJUE4AQACCcIJABBIEE4AgEDie4c4NL0AgFwC8W1d2TS9PH6up0UNUxmm7uYoxQeaqHM1j7HLnQcABImSv60bHrYfc+afphcAUO0UHU6sT/nqV7+q5vIJjqYXAFCNFBVOHEwtLS30wQcfqBJrAqHpBQBUHa7DSQ+mjz76SJWYE2hNLwAg8LgKJ6fBxARP0wsAqCYch5ObYHJKxTS9OpFaUhpxAEDAcRRO/K3cFVdc4WkwMeXR9NZTaywidh6n9DML+ruINeH5BkwAQFBx9KmvqamhFStWGJzbmckKPzW9NS091NlElGhTqt22hOUjyQEAwcTXmzCh6QUAmOG7MgWaXgCAFb4PX4GmFwCQSyDG1jHQ9AIAjAQmnAAAwIjvfU4AAGAFwgkAEEgQTgCAQIJwAgAEEoQTACCQhDacPtmzl+584Q/0Vx2/oEMWP0En3bOM/vO39uZOc1jpq4bB8NTcLUqqHVYZN1O32YX0L8hc68wFYk0PGO6mZqvjAWBB6MJpx8e7aeUfN1H7/6ygpW/8iW6LzqKXrjiHvn16hOLP/oH+/X+t3OMmyA9VlAbbDeMJ40R9nnxivcAmZIqBr7eNqFO/1mQtDXlxrTUt1LO6hzC0EbghNOHEY4Xjz62mo297itr+52Va+adN9OOmv6bIYQfR+H3H0ilHHkoPffVk6nzxDfrTth1qKztEjSkWp7rO1bTY+AQE8UFrCesTEdYO0oBRKxPmawWBJzTh9OCrQ/T/3vwTPd1yJv3s62fQU/94Bu07JvvyDhu/H50sQmpR/+9p4L2tqtSC4T5KDjRRo92HU9asMk2+BelahqrRdGeaSM3p6o3dMkHWPo3Nquzm5YJ+9ZQZGqB4VJTpB7fa3lDe3D2kCnOob6SmgTjFzKpipvvVrmXBgmZR1kzN4vwy74GAm4iyGZxbw8u9Fr3Y7BgW64LQE5pw+o+X36SbG/+KPrVftjWz9juinWL4ef7MqTR61Cj6u4efoZ+tXi/LLLGV04kPXFSrWWlNoBil2owfQBEag43ass4mGoh3qQ8bY7WM95mkaFLts5OoQ+6QP6BRSoplslxMi+vrabFYoYkiFOP1ZfXOavvsc41TUoSaGbxP3j6aEwRW+2UGKFUbF+U91NPeRInezFX29yaoqV1/PJeO2bVwucUx2MVV15mzLhgJhCac3t6+k6YctL+as6ZhxuG0sP546v77L9J3f/V7VWrBwCCtVS/zGB6ilIiGdM1KNIHamwZoML2BCI1WtZBrJGLtoXRwWSyT+1Q1Ia4ptIl6Ee9Q1eLaC3XaWG4vyiMx0g9Z09IujmlFDbX0iCCQYasCymq/kghFG9R58bUkekXMMP3Um8ocM43VtVgdY1otRRJt2bVLMCIITTgde+hBtGLD+2pOI7fWpP9kaiYdSO9vtzF71jRQNJIgQ0WgQvCDPlXtgSfXVYVSt1eIsI3HIoaakJP9soU0JWs8w90dlHJtHjU5huxM59peLKc2B8JOaMLpxobP0b/+8rf0v8Pv0Ee7Mw9SGLzp9vSk88FHH9Mtvx6gs2d8RpWYIWoQ3EzRaw86w93UzfM106lONI7Sn11R3pEo0EdVCLXPTJNJoYIyrzwXy+1FuUFbzMFh2qzrF9eW3nSY+pIDomUrGrZW+zWhpiFKlOyirmSdeU3P6loKHIPtpkkRlqlM9ROEnNCE0xenHkIPNJ9M9786RLPu/gUduO9Y2mfMaPpYBdWu3Z/QvmPHyvJT7+2l7bs+odu+PEsus6R+cbp5I5saPMVE01AGUD0tNi6T/SWlPtpc26do22SOJ5ORm1qdVGco1wKznhpFUzLTIW61vSjv1IKWy2IUNW/W1U+nQb1ZNTMq+3o0tbHVfk3g8BEhk6hrFFuZYX0tpscw3HcVjVsEHggloVamnHP3LTT7yBq69OTTacnyZ2jl+rco2fYvaikAIKiEXpnS9bUWWrFumE64+V/plXVr6d6LLldLAABBZ0TI5sZfezltv/1+NQcACDqQzQEAAgs0vQCAwIGaEwAgsCCcAACBBOEEAAgkIyKc3njjDbriiivopJNOonPPPZfeffddtQQAEFQqHk4rV65UrypDKpWiiy++mJ599lk5f/PNN9Nhhx0mXwMAgkvFw2nu3LkVDahbb72VPvzwQ9p///3p7rvvpi984QtqCdHbb7+tXpnRTwv0YRRyMupQfEZ6jwJ0PgCUgYqH0/bt22nevHmuAurmp9bR+LnPyYlfO2Xv3r300ksvyddTpkyh4447Tr5mli9fTpdfXuiOceVKWr2a5LCvmF/+cA5KQxjJkfrQ3oJw40uf06JFixwH1JYdu2nx0nV08cmHyYlfu2HUqFHy55tvvkkXXHCBDEdu4l155ZW0dWsBG6YB6UAaSFIfaisAVARfwmnOnDmuAoq577Jj5OQGrjl99rOfVXNEb731Fn3ta1+j9vZ2+uijj+i0005TS9yi1WQ0Pa3SyWYpZo2aFVXr6Tdqcg0JZ6qmNe6fy3N1vDk1KdN9QG8LqhtfwonhgLrkkktkQG3btk2V5nPst1+WP/VmHXPENcvlTzv27NlDnZ2d9PnPf172N+msWbOGPvnkE5o0aRLFYqKt5hDpQIpESZc+ZvS0rEkRYVFI2dshmoVqmWgfqmW8XSH9LS/L1fEasdgH9LagyvEtnLjG9NBDD8ka1IQJE1RpPltFs27ND2ZnTVxmBwfTvffeKzvCufl29tln04wZM2RIjR8/nqLRKCUSCTrkkEPUFlZktLHsEursMfqwDXpaqZgtoOyNq22Ny5zqb+2A3haEFF/CiYOJa0wcTFyD8hI9mD744AO66KKL6Mc//jEdc8wx9OSTT9Irr7xCL7/8Mv3whz+kQw89VG1hR6ZDXKshecEwDaXUS4kXWl3obUH48CWcyhVMu3fvpo6ODhlMF154Id1///105JFH0qWXXpruGC8LSjFrrewdoKTek2585JQL/a0l0NuCkFLxcBo7dqyrYDpo/zE041svZ01clgsHE9/HtHPnThlM3d3dsilX9mCSaIpZa2VvhOoGtRrMTNk3pS9zqr/N1fEagd4WhJOKK1OWLVvmeY2J0YOJbxfo6uqiSCQim3X+w9+sdVBtEvclAeAUX5Qp5QgmrjVxPxbv+7777qPPfe5zAQkmAECx+PZtnZeMGTOGzjvvPLrnnnvk4N6vfvWragkAoFqBCRMAEDhgwgQABBaEEwAgkCCcAACBBOEEAAgkCCcAQCCp+Ld1fD/SrFmz1Fxlueyyy9SrbJYsWaJeAQCCgC/f1pVT08vhY5zMuOOOO7Ima/jObjUcRE2OBs/qw0aafbJmQuELQkLFw6kYTa8bjKHDJgLj5B6DlaCziRJtusjNChFobQlqYq9Tll6lgkDhC0KCL31Obi2YgaC+kZooRYUH90eodpp6CQAoGl/CicfAlSugrrnmGjkx559/vpxuuOEGOa1YsYJOPfXU9OSK/t5sE2aeGpebgRmdblryVlDDq8ps1uvuzhgGsuVxZipetY1arX9BZnnGaACFLwg+vn1bxwHlRNPrBH6qCk8cPjxxB3duJ/czzzyTNTF6iFljMEz2NhqaaiIA8tS402ixQafbI9tVZuvp4ZKr+bVeLz4ojq2algPxLrE2wwETpaTYTi4Tk5mnrn6x2iefW6JDCy0ofEEV4Fs4cY3JiabXKcbQYfulcbLCLMSyUX1OyRhFEr0qFAS2el0DTjW8BdaLtar0MDYtlbSuoKcp7XXiWp0CCl9QBfgSThxM5bJhMvzIJ+NUMjUtFI+lcmyTTvW6Xq/nAm4qtpHab5JiEVUOhS+oAnwJp3IE0xlnnCEnZv78+VmTF/Bz6+r0p6Y41et6vZ6RmgaKRgpss3aQBiK1JPvnZU1LlqaBwhcEmYqHk1tNrxNWrVqVNZmhh5cxxNxRT63pp/461+t6u56RGmrp6RSBmdkmb5P6VlE3ilOUl8cGqU6vOUHhC6qA0Gh6AQDhge8Qh2wOABA4IJsDAAQWhBMAIJAgnAAAgQThBAAIJAgnAEAgQTgBAAIJwgkAEEhCc5/TE4uPoR1bN6q5DGP3HU8N/9RDh9d8SZUAAIJOqG7CfPhfx9MJZy1QcxneHV5Obw+aDwXZ/6DJ9H8XvKHmrGEnUht1ejMY1xR2MBmsAYJILKm0KwCMPEIXTmaMHrsf1Xz+qzR+4hRVkuG1pxfTP35/u5qzgEf287g0SlFtvFz6Ww6nDqpN6vtXYdVUKBBztwMgHITuDnGuOeVOx58x3zSYnDLclySKtlJrlCjZV6nR+9pA4CyHFAAjDHSI2zJMMpsaaqimQaaTKNHhWkszdfdn9LoZeZvdMocoJUqvSqd83a6qXemSOqUkMNfyAlB9IJzsYAcSKW84h4WYy648iWDoIIqzzE0qT5TvSWK3zD35ul1RuzJogfXmn6mWF4AqBOFkg9aka1De8BriylO8y1gbEcEQV17xmhZqbxqgjK3XbplTDE9yMdPtmuF0PQACDsLJkn7qig/QgEHmFhXzZNkPNExDKfUyD7tlFkhzZR1N53Sz0u3m4nQ9AKoAhJMV8lFQMUrKD7o+8Qc+0w/ETbd0J7l64EBj+ss1u2WF6KcF0TjVdfKTWQQFdLtpnK4HQBWAcLKgvzdBkXSTToebdhFRedLTKUJ1g9pDAmYaw0Rit8wMw9NX5O0Bhkc21VvodsUeG0VzMd0hbrkeANVHaO5z6vn3Y+jDLfl3iNtxwMTJ1PztwjdhmmN3j5HdMgBAIaDpLYliwonLczuq+ZFQhWpVAIwsoOmtOPz1v7EPiycEEwBmoOYEAAgcqDkBAAILwgkAEEgQTgCAQIJwAgAEEoQTACCQVPzbupUrV9KsWbPUnHdA0wtAePDlJswTTzyR7r33Xs8Dqro1vQK2CbTpt2fixkwwsvElnHjs2IQJE+iee+7xNKCqWtPLx4gOUrseSGK+e20LtdQXOwwGw2dAdePbfU6LFi2iefPmySael+QqenmqCk2v0SbA1HAwqdcAjFB8Cac5c+aULaC8pUKa3vpGahqIUyxrHX0cnhMNr3a8BQua1bL87QCoNnz7to4D6pJLLpEBtW3bNlUaMNiJVBFNL4+5E0dKamI7LU/cangHKFUbzyzL2Q6AasO3cOIa00MPPSRrUNwHFUQqq+mtoZYeESYiyFJtekCZYKnhjcgaHgBhwZdw4mDiGhMHE9eggolPml4RZPGYUWhnABpeMILwJZyCH0yCSmp6+7sNzTPu5xqgSPrJBgag4QUjiIqH09ixY4MfTIKKanrrp9NgWtEbpXhdp3oUebEa3pztAKhCKn6f07Jly8oSTND0AhAefLkJMzwUE05cDk0vAIWAbK7iQNMLgFNQcwIABA7UnAAAgQXhBAAIJAgnAEAgQTgBAAIJwgkAEEgq/m0dNL0AgEL4chNm9Wl6h6m7OUo85lfC4+16lG0AAFAWfAknHj9WNZpeqc/lcXGrKa1FSit01bxrvBjaguExINz4dp9TuSyYuYpenorX9IoaUywnmBgodAGoCL6EEw/8LVdAeUYhzQnDNStpEtCmjACAazbN1N2ti+F0Ta8+ti7HGJC1nwViLcblPgAIGb59W8cBFXhNr/GhA3mIkFBNPjlGThosRZikvUwiPAYbtWWdTTQQ7xJbmKl3eT+s6FX76STqSO/E6T4ACB++hVM1aHppYJAszbrDQ5QSEZGuWZlpelvVQn6AgVh7KB1cBuR+VC2Ia0htok6U3onDfQAQQnwJp6rQ9PIDDbKsl+WEtSmq5sQTakMA+BNOVaHp5QcOtDdRIvdhA/xtHc/XTKc6MoSXKO9IFOijMkPtJ9OUAwAwFQ+natH0SuoXp5+GondKz4wRNcgAqqfFxmWy38iJmylXoavtRxRkjlGwkxsaXhB+Kn6fU3g0vQCAcuHLTZgAAFAIyOYAAIEF4QQACCQIJwBAIEE4AQACCcIJABBIEE4AgECCcAIABBJoegEAgQOaXltNr/ImNXWaDsQd7m6maJwo5spGyftUBktiyyYPeYHNEoBcoOm11fRqQZKKkAih3ABRwSWdSkWGEwIJAEug6XVAXR1Rsi/HGNDfK2pUTdSkZgEA3uNLOPHA33IFlNfUtrZTnTRQ6gxTd0eKYq2Nal5hqtoVGMqbu4dUIcO1qIw5s3+Bvq2YYBoAwL9v6zigAq/plbCexOht6qMkRakht5lnqtrl8ozKNy62TGgb5FG/WG3LCt5Eh0H3C8DIxLdwqgpNr6K+NUapjm5RZxJx0yXCpj3nuXVWql0uj8RIN+3WtLRbNwX79QcZcF8WAMCXcKoKTa8RVvaKWk9ffzd1pDJhk00Jql1u+rWR2j5JsYgqB2AE40s4VVUwSVjZW0fxtjhRtCH/ab9Wql0uH4hTl2oSDnd3mNeK1g7SgP6kF/lIKlkKwIim4uFUVZpeI/WtokbTRO2m9wBYqXZFeafmIeeymKh/mTbreN8UpyhvFxukOtScAICmF5peAIIHNL0AgEACTS8AILAgnAAAgQThBAAIJAgnAEAgQTgBAAIJwgkAEEgQTgCAQAJNLwAgcEDTa6vpFbApoE0fDccDexeT4+G8PJgXGl4AigKaXjtNrwyXQWrXA0nMd69toRYXsgFnQN0LQC7Q9NphNAUwNeUIJgCAFb6EEw/8LVdAeUZ9IzUNxClmqqQcpu5mZR8Qk2bV1bS7CxY0izLW9Bo1vOp1v1HZK9V1opzlckpUJ3dktm8ARh6+fVvHARVsTW89LV7NfUaaBiUTEhweUUpGk2mxXMYrN0Cp2rgoM+ubEgHUQRTnbaReJSaCi4/RSU3yKS5KUNffRfG6TpN9AzCy8C2cqkPTW0MtPVqYpNpUQEkZnJXXKULRbLm4ARFAcaX3FU3E9qYBYpNvHtNqKZJoUzUrAEYuvoRT9Wl6W0RFJ0KJ9FMOSmWYhlLqZS7iWD2ixiQalGjWgRGNL+FUFcHU3214Asow9SUHKFI7TYRHA0UjJkreggxknn+nal+NNk22mpYeSopATA2hBgVGJhUPp6rR9NZPp0H9aSozo7IfqEc25bip10l1BiWvs9pNhOoGtdrQTPm4KL1fih89ZegQTz+FZSZF43UWzUcAwg80vRXR9OJeJgDcAE1vxUA4AeAGaHoBAIEFNScAQOBAzQkAEFgQTgCAQIJwAgAEEoQTACCQhK5DPBaL0fvvv6/mstlvv/3ommuuoWOPPVaVAACCiC/3OZVL06tz2WWX0R133KHmsuFg2nfffWn+/PkIKAACjC/f1s2dO9dXh9OuXbvotttuoz/84Q+qpDD9C9TQkiyMviYAgNdUPJxETc21ZO7mp9bR+LnPyYlflwoHlFXtKo/hbupINVFTqqMCQYTAA0DHlw5xNxbMLTt20+Kl6+jikw+TE7+2Y+HChTRx4kQ5sSdq3LhxagnJQNKnnTt3qlJ7hvuSRNFWao1SxioAACg7voQTD/x1E1DMfZcdIyc7lv5uE1355A46/OoX5fTlOwao/40dMqRGjy7mUlmVIrKpoYZqGmQ6iZIc1uaqdxX8gARVzlOmVZhbO9Ln+Weusjcb2bzU95lebq0MztcCa+umz5MNCM3d+dcEQADwJZwYDignmt5jv/2y/Kk365gjrlkufxpZ2DNEsUeG6J0tu6h51sFyevsvu2i+KFv01HoaP9786Sy2sHeJoiTlluxxEnPZlScz9S6Xi3CQWhRNtauZNAs110yUvTnUL1b74/USqplpqfU1Ozdd99IlzlCcYxtRZ4+ycwIQMHwLJ64xOdH0bhXNujU/mJ01cZkRrjE9/sqfaUnrMfT+9l10VeNUOfFrLnvkpfeod9XWrCaeE7QmXYP68NYQV57iXcYajYV6d3iIUiJm0jI5Oy2vG9KuJ65hKSy1vlZaYBGCnURtYh+UdkoBEDx8CScOJi9tmHf1bqQNmz6iM295jTZv300n3rRSTvyay3jZj57eIG8jcE4/dcUHaMAglYuKeUr0iiVm2Kh3vYCbiZwnsoaUpFhElTvS+pb53AAoA76Ek5fBxPxm3VZ69aZZdP25U+kbpx9Bg7fMllPr6Z+hb0WnymWvrt3mrt+pv5cSkRglVXNJmzgUEpRRiVuod2umU52o26TX42/8EnpNahrVRgy1KD6OepmP3h8lXhqfoyePxS8y5Gt9rbTAqjknmobUxo+wAiCYVDyc3Gp6D9p/DM341stZE5eZMWoU0V7xT2evfKnmXd5q2t+boEi6SafDTTvjgw6s1buL1RNbtGX8iCl9WQ21tDdRQl/Wyw8618lR9hqpbxV1ozhFeZvYINXpNSdLra/ZuXGHeBulYq3idT21xlLUhg5xEFBCoek959bX6dk3tqg5c/6mbiItvTqS7nznu8WXLFkiX4cPrnHBvAmqF1/uEPc6mJirzppMUz49jn51/Qk0afwYeuW7s+TEr58WZbzs6rOm0MMPPyxDiadDDjlEbQ0ACCKhGfh745Nr5bdy+48dTSfPmCBbcS+u2UY7PtlDF3/xMPq3847SVhwRoOYEqhtfBv6Wk1+8tol+1LuRXn1rq5yfNe0gWWM654RJch4AUB2ELpwAAOHAlz4nAABwAsIJABBIEE4AgEASuj4naHoBqH586RDncXXQ9AIA7PClQ7waNb32GMa/uUH6norYDoARQsXDSdTUXEnmGF81veVC2gRwkyQAVvjSIe7Ggum3phcA4A++hBOPr3MTUIwfml5zLa7AoOBt7h5ShYxq4hn0uLzZcHdzej8ZKZyxOahed2cMA/nyOA2oesFIwZdwYjiggq7pNdXi8ofeoOCNUzLHx2TQ43ZqahRWncj9iPkBqcg1Q2w32FhwPah6wUjBt3DiGlPQNb2mWlxW8EZi1KoCoKal3eBjYgx63PpG6QTnByRI5HyK0j64LMR2+k7t1oOqF4wQfAknDiYvbZhl0fRaaXH9BKpeMILwJZy8DCamLJpeKy0uK3gH4qQ/52C4u8NGs+sFhr4pqHrBCKLi4VQtml5LLa5sEmU0uzGK5jTryojVOUHVC0JIxe8Qh6a3UnCNC8I5UJ34coe418HEQNMLQPgIzcBfaHpzQc0JVC++DPwtJ9D0AhAOQhdOAIBw4EufEwAAOAHhBAAIJAgnAEAgCVWfk52il2FN77XXXkt1dXWqBAAQRELXIW6n6GWg6QWgOhiRHeLONb18n5A2JESfzAfUloJh3FzWa5/Qh8HwcBZohIHPVEU4lUvTu3dvoUpjhGJJzZHEPqRUqAfJinBsS1ATe6rY7wSNMPCZwIeTW02vHSVpetlGYOliCgsRqpXKAwD8p2qadU40vXfffbd0h7P1cswYc3NB0fT3UqKpXdUkcptgJs0zK+WupeI3B8N6M2da1djM9LxcbNzW2By1OjcuZ3ndAMWjxjLDNWadd3f2MgDKQODDyamm94MPPqALLriATjnlFNmnxB3fpQeU9mGVH2QpjXTqjLRS7ooPvK3iV4fXS1JUb1J2EnXkJQEHU5SSYj25jpi008s+htYcNQaJ2bnV02LW/qpmbE9eW87peQPgHYEPJyea3u3bt9OBBx5Id911lwwk1v/eeeed7rW8eRj7nGqpw3FtwUK5W1Dxq+D1soJR1Gk0v24GJY/LuJsUcltdKifI0vMyFudmh9PzBsBDqqZZZ8eFF15Ia9asodraWmpsbJRlS5cupX322Ue+9oSaBopGjB/yctOkdLxqclxrAyAchCKcNm3aJO9xuvHGG+mxxx6TZcU8CsoWWVPRO4ynUa0xqLg/Sr20xaniV3a+J0yacoZ+IBmWJuuobXsN/U8dCUNNqhgqriYGoArCyYmm97zzzqPNmzfT448/rko0HTCXlVZ7MjStZB+Q/tV6DbW0Z1S9M3u5nuMEp4pfsZ58lFNU2z9PeTdZ6Y94yqyjraJtm9LPTZ53qU9Y8VFNDEYsobhD/OOPP5Z9TNyUGzVqlAymjRs3ymYeq3i574nXMcJ3iz/wwANyfeAS/uYuOkjtq/FYKVAeQnOHONeOrrvuOurv76e+vj569NFH6eijj6bBwUH54M4PP/zQ2/6nEU5/VzzzFBgAykRoZXPcpON+KO4onzFjBiUSCWppaUnfFX7wwQdTPB5HzckR2m0L8fSjqLizHrUmUD5CN/A3Fz2gJk2aFPInrQAQLkIfTgCA6iQ0fU4AgPCBcAIABBKEEwAgkISuz8lO1cuaXr6/CRZMAIKNLx3iK1eupFmzZqk577FT9ULTC0B14EuH+Ny5c2VA+YVzTa9OtjNJKmzVkqKQXiSndgMzPD4fAAJKxcNJ1NRo3rx5rgKqXJregsggidJgu8EOECfqyx3m5oYs/a1hIK8TynE+AASUijfr+K89B8N3vvMduueeewo28VjT+9lrlktFL/OT5e/S9ntPk6/N0NUpzJ49e2QQffTRR3LeCDfx7G/M1O6K5iAon62Ew6mDatMDiu2oxPkAEAx8u89pzpw5tGjRIlc1KCea3qW/20RXPrmDDr/6RTl9+Y4B6n9jB02YMMG9QkXJ3OxUI/0LDM2rtDVAqw0tWNAsylmvaz7fPcw/M2rc9PaydpTZb3q3Ds7Hclv9mP2Z5bxsuJvPSZvPqITz181dlrkWq/cgG/N1spunWrHVsbV10+fBT4lBczb0+HYrAQcUD8rlgNq2bZsqzceppndhzxDFHhmid7bsouZZB8vp7b/sovmibNFT66VX3DUFBrfWL9abV53UlOgwNM8GKFUbF+X6+LPceSZbjavJ5MSH006xa3s+BbblEOwgivMypT+JEZ+TNp9RCTOGdaW6JWZ5bdbvQQbTdfq7KF7XqcqNtUGzY+t6GD5HcZ2sTOYnxKgtQDjxLZy4xsQ6Xa5Bcc3GCieaXq4xPf7Kn2lJ6zH0/vZddFXjVDnxay575KX3qHfVVvfa3oFBshVf6s95kzUgIxGKNhg/OrnzFhRS7NqdjxM9b1x9oKWe13BOebpew7om+8m6Fsv3wIDZOtNqKZJoM9TKdKyOzU4pojZN5m4IeRBWfAknDiauMXEwcQ2qVO7q3UgbNn1EZ97yGm3evptOvGmlnPg1l/GyHz29Qd5G4BhlmkwbJXPhJhR/TuRf/iTFIqq8XBQ6n7IxTEMp9TIXJ++B1TryiwF+WEJMBpd5i9Dm2CD0+BJOXgYT85t1W+nVm2bR9edOpW+cfgQN3jJbTq2nf4a+FZ0ql726dpvLfqeM7TLrgyM+bN08v3Yw4zSS/UH8okRsFbsFzsdTPe8AJftUjcaur8vyPVB9R7yLAu9TTUsPJUVipdLVNqtjq+acaBpSqB9uCnQqHk5sqXQTTE40vTqsZtor/unslS/VfDHfSdYvVn03WuesnGJEDfxhqW+VfTZRWTZIdUXVnOqpUTRbMh3iBRS7dudTaFtXRKhuUKvRzJT9WBb7cfIeWK2TburNpGi8zvAUGbNjc4d4G6VireJ1PbXGUtSGDvHQU/FbCZYtW+ZZjUnnnFtfp2ff2KLmzPmbuom09OpIuvO98K0EIxWu9Ti9vcFr/Dw2CBK+3ErgdTAxV501maZ8ehz96voTaNL4MfTKd2fJiV8/Lcp42dVnTaGHH35YhhJPhxxyiNoaABBEQjPw98Yn18pv5fYfO5pOnjFBtuJeXLONdnyyhy7+4mH0b+cdpa0ICoCaE/AfXwb+lpNfvLaJftS7kV59a6ucnzXtIFljOueESXIeAFAdhC6cAADhwLfhKwAAUAiEEwAgkCCcAACBJHR9TtD0AlD9+NIhzuPqoOkFANjhS4f4iNf0AgAcUfFwEjW1ka3plTcaGj1Lbil1ewCqA186xN1YMFnTu3jpOqnp5Ylf27Fw4UKaOHGinNgTZXQ4cSDp086dO1WpFaLGFNPkbVla3JoWailuNC0AwAW+hBOPr3MTUEwQNb1azSrT5MuoTFTtpjsz8l6TqnF5vprXWnWbq7I1394IlLggLPgSTgwHVHVresWHu5AWd7BRW5bW4JqpedmEovaRpbrlkIhSMppUy7gGZ769EShxQVjwLZy4xlTVml4nWtxWtTBPg5uDmcZW1dwyniOHQIkLQoIv4cTB5KUN0xdNr1dw07CQ6tYpVvuCEhdUIb6Ek5fBxPii6fVKi2ulsVXh2JFX28lF9R3xalDighBR8XAKjaaXmz5FaXFz1Lz1Vqpbve8nmj62FpK5al8DVvuCEhdUIRW/Qxya3qDANS6I3UAw8eUOca+DiYGmF4DwEZqBv9D0ugU1JxBcfBn4W06g6QUgHIQunAAA4cCXPicAAHACwgkAEEgQTgCAQBK6PidoegGofnzpEOdxddD0AgDs8KVDvHo0vXwfkDbkQ5/yR/VboA8XKXrYh2G8HAAjlIqHk6ipuZLMMb5penVvkhzlr8a5mQ/pN8CDZhPUxJ4nTzxICCowMvGlQ9yNBdM/TW8u2kDfSKJXxEUhIlRrbakDADjAl3Di8XVuAoqpuKbXjFzHU5aml9UiXMvJaHT1ZqC5Oje3RmRWQ8ren1mtDVpeEFZ8CSeGAyrwml5bxIddalJUs6+TqKN7WpZGt0cNWjPX8DoBWl4wcvEtnLjGFHhNrymqySY1vapGwzWRNlG/yTh6szFT53oFtLwgpPgSThxMXtowy6LpNUPaIutoerpa0aSUuGoyqdl4quHNBVpeEGJ8CScvg4kpj6Y3F27G6bZIgdL0FtToWqpzp1FtxPBAhP5eh7Uq1XfEh4WWF4SYiodTVWl6jc026T4y9t9o396JFdRyMZlVUeptNLzKUS637eV6mBnQ8oKRScXvEIem1y+4xgW5HKgOfLlD3OtgYqDpBSB8hGbgLzS9hUDNCVQPvgz8LSfQ9AIQDkIXTgCAcOBLnxMAADgB4QQACCQIJwBAIAldnxM0vQBUP750iPO4Omh6AQB2+NIhXs2aXvMBtKVgGCcn3VC5Picb3K5vgB1QecYCHvLi/QUCUDQVDydRU3MlmSsHxWl6jePqcjGETLFIk4DdDZI5xyi4vjX1jU15epf+3gQ1aaOAXeLBtQNggi8d4m4tmG4on6Y3REjfk1E33E+9Cd1QAEAw8CWceHxdKQG16b966K32mJrLUHZNryRXgcs1h3yVrrk+V2BQ+zZ3D6lCxlgDcXKM3BqLmZrX4jxydcOsa2lqJJlNhvPT1MNyBe1Y3RnbgdYsdHntBqAXBoXwJZwYDignmt5cZDB9819owmknqxKN8mh6jcoU9UHNU+Caq3TN1bzigyZVJdqyOCXNHU4Oj5GBP6hRSkaThm20JebnUUMN0YznKdOk4/PLVQ/rH3fxXgw2qnLRLJRaXzfXng30wqAQvoUT15icaHq5hsSBxOjBdNRdP6RPX9gsy5jyaXqNfU5KMmepwM3BTJ/Lat9IjFrVh66mpd3c4eT0GDpKHJfxNhkwOw9BTUOUKNknYo2NmE7Uw+K90E+8vlGcd4rSDrtcLI6Zhdk60AsDA76EEweTUxsm15A4kDikzIKJqZiml3GiwLXS5zrFkWbXAXbnwU07UXPr6xfBJl41pHPNgXrYDifXbrWOo+uGXnik4Es4OQ0mhoOIA2nTo/9tGkxMZTS92eQrcA1Y6XNZ7TsQpy71oRvu7rCuWQhsj2FE9SHlKYNtNb7ctBMtpLY4UbRB1UocqoftsDym6jviXUMvDBxQ8XByq+llOJCOW/lr02AyUl5Nr+p8TTdHjArcHJVuvZWal5shGTVvTNRYTJt1To6Rhd7/klEGy1Usz0ODm3YR8S+arjaJ83OiHs7C6bUbsFrH9LoZ6IVHIhW/QxyaXuAOrnFBkjfS8OUOca+DiYGmF4DwEZqBv9D0hhXUnEYivgz8LSfQ9AIQDkIXTgCAcOBLnxMAADgB4QQACCQIJwBAIAlVn5OdopeBpheA6iB0HeJ2il4Gml4AqoMR2SHuXNMr0IdTFDMsQnqRjL6lMlGp4wBQYaoinG5+ah2Nn/ucnPh1qTjT9PKg0gQ1sXupGE9QCRpdV1TqOABUmMCH05Ydu2nx0nV08cmHyYlfF+LUU081/ele06s8RwCAilM1zbr7LjtGTk54/vnnTX/qIVUYHjKR0c/q8rN8taymis0auM9NQdkM5H0Ym1tmClou5maZSbm+fZ4aN5dSjwNAMAl8OB377ZflT71ZxxxxzXL5sxAvvPCCeqWhh1RhsvWzParNlK+WraGW9iZKpGXcIipYedue2wy00uiKYDFoe1lBm2ozBo0Ixzw1rh3FHgeA4BH4cNoqmnVrfjA7a+IyOz7++GN6/fXXacGCBfInzzPOa04WpH1DBrUsK2vTTzLpp95URsObRgnS8jS6UotreOpJjVFBy7hQ4zJFHweA4FE1zTo3dHV10RVXXCFDiX/yPOO85mSClVpWic7YHslmy5RulQQAlEQow6mtrY2mTdN6svknzzMl1Zxs1LLawwK6qCtptDcasNLoKi1uulUoArDD0fPjcvuZFJ4fBwD/CHw4HbT/GJrxrZezJi6zY8+ePTR9+nS6+eab5U+eZ0qqOdXb6GflwwISlKhTz37Lw0Kjy31bsv9HdVTLxzKV8hSRSh0HgPIzou4Q55qTHlDQ9AIQXEbcHeIl1ZwAABVlRA38NcIO8Xg8ruYAAEECJkwAQCCBCRMAEFgQTgCAQIJwAgAEEoQTACCQhK5D3O4bO2h6AagOfPm2buXKlTRr1iw15z12N2JC0wtAdeDLt3Vz586VAeUXrjS9TI4HKaPstRjflofT9YwUsw0A4aLi4SRqajRv3jxXAeWPplfAwSTHoSkPkpg66wYJphEAyo8vHeKLFi1yHFDFaHqt0BW9PBXW9A5Td4wFbdl+7vrFGDALQCXwJZzmzJnjKqAYN5peT1DiNsdakZzmX54Gd21muVG3m6/+tcd8fXM1r5VWOH38tFIYgODh260EHFCXXHKJDKht27ap0nxK0fSWjO5vEgx3N6sPullfUCEN7gDFO4jiahnFY+ll+epfrdwK0/X7uyhe16nKdTWv2bq6UoV1v+KcWZ5XzJNlAKgAvoUT15geeughWYOaMGGCKs3Hrab3gQceoIMOOkjeNjBq1ChVWiQDmf6lmpYe7UOu5rNwotuNqxDIXWam/rXDbP1ptRRJtOU/AMF03/W0uJOoTZRRJ5qoILj4Ek4cTFxj4mDiGpQXvPPOO/Ln8ccfT6NHj6YtW7bQgQceWHxASXtkAWd3UQzTUEp/aaX+tcBqffnsutUUp5gMI60F53LfAAQMX8KpHMHU3Nws73Fi+CfP882Y48aNk2XuYTe4aIFFF4gGUAEKanAHKNmnUs7Yl2Wj/s1guK2gwPpcu0uKFEpxolquq5pzohZIbQ6uDQCfqHg4jR071lUwOdH0Hn744TRjxgxpulyxYgWdcsopcp7L99lnH7WWe2RTTjaBuGmkNY9SsbjJ03ULaXAjVDeo1Wpmyr4ptazeRv1rhtX66ebbTIrGlcfcdF3uEOdraBXH1x7M0IYOcRBQKn6H+LJlyzyrMekcd9xx8icH0wEHHEAffvghnXTSSbLs97//vWzi5QJNLwDBJVSyOW7KcY3p61//Oj388MO0fPlyGT7r16+n73znO2qtDDBhAhBcQhNOep8TN+W49sS1pjVr1lBPT49s2gEAqotQ1Zw4oDiIuIm3atWq9DwAoPoIVTgBAMKDL1YCAABwAsIJABBIEE4AgEASqj6nQg/V5PF21157LdXV1akSAEAQCV2HuJ2il4GmF4DqYER2iLvW9HpCSLW7+rAZHgIjfVZQCwPvqIpwKpemd+9e3EVRPDyAOEFN7LBiJ5Q0I2RbQwEohcCHk3+aXlCYCNXqNj4APKZqmnVONL133303TZw4kcaPH09jxmSbC9yjmmL9bvW65srcDLzfzDaW+5HNJK28ubs7u1loWDZzpq49KXRcxmKdrP0Zt1XvQXfGeqC9B1zOArsBikeNZebnmHf+ADgg8OHkVNP7wQcf0AUXXCAH/3KfEnd8lx5QbvW6/OGPUjKaVMsyylwNTVlC3BRSC8z3Iz7oBu1vnJIGkyUvMzwRppOogzeyUPVmsDq37GOZKoYHG7VlnU00IBW/9bSYz5cNn+I8evLacnbnD4AzAh9OTjS927dvl9bLu+66SwYS63/vvPPOEkRzOi71ukokJ31KJiRjWjhkBYfpfoYoFYlRq1qvpqU9oweWSmCtxiK3axP1Fz4pK1WvjtW5OVEM6ydS3yjWdGAHtTt/ABxSNc06Oy688EJpIaitraXGxkZZtnTp0pJEc/mUoNeVsIoyogWJTlH7YZrUNmritDNT9QJQxYQinDZt2iTvcbrxxhvpsccek2XsES8dl3rdmgaKRhJaMyuPCEXjPdRJhtqN5X6mU91AnLpUwAx3d2RqVUoJbH4MziiDqpebV3pfj9W5FVQMF4Hd+QPgkMCHkxNN73nnnUebN2+mxx9/XJVoOmAuK6325Favqz96Kaqaavk1mPrF3F8klvO9QZb74SekNFFCaX9jFDU0izQlsGjXpY8hO9LNVL1ZWJ1bIcVwMdidPwDOCMUd4h9//LHsY+KmHD9thYNp48aNspnHNkzue+J1jPDd4vwYKeuns3Cto4NqkwG4d4ebf9FBal9dpY9yqvbzBxUnNHeIc+3ouuuuo/7+furr66NHH32Ujj76aBocHJQP7mSnuLf9T5Wlvyueaf5VIdV+/sAfQiub4yYd90NxRznrexOJBLW0tKTvCj/44IOlQzyYNSfta/94+nFO3AFeTbWOaj9/4DehG/ibix5QkyZNwpNWAKgiQh9OAIDqJDR9TgCA8IFwAgAEEoQTACCQhK7PyU7Vy5pevr8JFkwAgo0vHeIrV66kWbNmqTnvsVP1QtMLQHXgS4f43LlzZUD5hXNNL9/npIZ0yAk+IgAqScXDSdTUaN68ea4Cqlya3sJoviIe+a/pnLoJ+QRAZfClQ3zRokWOA8qtpnfhwoXShsnThAkTspxOpWh6pZNoIEm6pAAAUF58Cac5c+a4CijGiaZ36e820ZVP7qDDr35RTl++Y4D639ghQ8obhUqG0vW61s4l833zkJDcbZUSJU8lrK2bVrOwsYAtCNocAFWBL+HEcEDxoFwOqG3btqnSfJxqehf2DFHskSF6Z8suap51sJze/ssumi/KFj21XnrFS0E6iSJRalDj7IrT69rpcDOY7ttSw2umEtb1KKzUFcdloR0/IUVtAUA14Fs4cY2Jdbpcg+KajRVONL1cY3r8lT/TktZj6P3tu+iqxqly4tdc9shL71Hvqq1FaHszOlx2JGV9wIvS69rpcA2Y7dtSw2ulEmanElGb2AfpHioAqghfwomDiWtMHExcgyqVu3o30oZNH9GZt7xGm7fvphNvWiknfs1lvOxHT2+QtxG4I9Mhvto4qp6bZ0XpdR1gtW9HGl6DShiAKseXcPIymJjfrNtKr940i64/dyp94/QjaPCW2XJqPf0z9K3oVLns1bXbvOt3KkGva67DVX1HXCmy2rciW8PLWKiE9eYcP56lTX98FADVQ8XDiS2VboLJiaZXh9VMe8U/nb3ypZr38lbT+uL1ugV1uFb7ttTwmqmEuUO8jVKxVvG6nlpjKWpDhzioMip+h/iyZcs8qzHpnHPr6/TsG1vUnDl/UzeRll4dSXe+893iZXc8cROtrHparnEFRCUMgIf4coe418HEXHXWZJry6XH0q+tPoEnjx9Ar350lJ379tCjjZVefNYUefvhhGUo8HXLIIWrr8gE9LQDFE5qBvzc+uVZ+K7f/2NF08owJshX34ppttOOTPXTxFw+jfzvvKG3FslJpPS1qTiCc+DLwt5z84rVN9KPejfTqW1vl/KxpB8ka0zknTJLzAIDqIHThBAAIB770OQEAgBMQTgCAQIJwAgAEktD1OUHTC0D140uHOI+rg6YXAGCHLx3i0PQWwjDOLuu1FbnnaRgULP1RlTpvALyl4uEkamquJHNMODS9ToKmWAz2BDl+Tw30lSYD/QbNch4fAO/xpUPcjQUTml6XSPtBitLSAgCqFF/CicfXuQkopjo0vap20p0xCGhyOC5ncZyS16n1LVW/Fjhav7+XEk3tObUlt8c3UwJzcUYHnFWujrNgQbMo12ptTs7VfB3oiIGGL+HEcECFT9PLiAAYbNSWdTbRgFTl1tNiXk9vfinHrvU+zLE9pjJ2auLL3NF8bo6vjQ9MRpNqma4EFgFhqxkeoFRtXCzTxhI6uTbTdaAjBgrfwolrTKHT9EpEAOie3vpGEQg2TSzLfVhgd8x0n1MtdTjtWzLbnxLWZXxRioKa4QhF9eRmnFyb2TrQEQOFL+HEweSlDbMqNb1u9+F0/ZoGikYs3ORGvLgGK5zs22od6IiBwpdw8jKYmMBoet3gdh9O15fLIlRbSCJlqRrmcEtQR27NxVYznIPluaq+I951geuBjhhUPJzCrem1o54aRVMk3SHtdh+26xv6nKT+18zv5PT4ej9OVDW59NqLQ80w4+TarNZJN/WgIx7pVPwO8RGl6QUewTUuSPVGEr7cIe51MDFB1fQCAIonNAN/g6HpBeUBNaeRhi8Df8sJNL0AhIPQhRMAIBz40ucEAABOQDgBAAIJwgkAEEhC1+cETS8A1Y8vHeI8rg6aXgCAHb50iEPTWwjD+LOs11aYreNkuxLhgbsVe0/ASKTi4SRqaq4kcww0vQEkSwEMgPf40iHuxoIJTS8AIxNfwonH17kJKAaaXvfra9hob9NBmz1vd20ZFW/OPmQzL/c4jNnxs4GuF5jhSzgxHFDQ9Frtwxy360sstbfW2F2bUcWbQYSGlcLXwfGh6wVm+BZOXGOCptdqHxa4XZ+x1N7aYHNtWSpeHTuFr5Pjmx0Put4Rjy/hxMHkpQ1zZGt6p1Ft7rYyLOpoOn+CHWlvDXhxbUYKHd/qeI7OG7reMONLOHkZTMzI1vTW0PQ6UcMzfJPY3xWngabGrNpDtvaWA83gGefHSamXRV2bA4Vv9vEN/VXQ9QILKh5O0PSKbbga4HYfNuvXLxY1Dn2ZmNpSMUrqnTTpJpNRe1tDLe1NlNCVu70kGmWKIq/NUuFrenwDVsez3A663pFCxe8Qh6YXFA/XuCCdGwn4coe418HEQNMLQPgIzcBfaHpHAqg5jRR8GfhbTqDpBSAchC6cAADhwJc+JwAAcALCCQAQSBBOAIBAEro+J2h6Aah+fOkQ53F10PQCAOzwpUM8lJpeHrxqt7wQpW4vz7WU7QEIHhUPJ1FTcyWZYwKv6ZUj6Eu4MbDU7QEIIb50iLuxYELTC8DIxJdw4vF1bgKKCZamV2tGmStr1es8Va9OIW2uep2notXwRu0LBS4IPr6EE8MBVc2aXmtlLWOm6mX4gx6lZDSpLROTuTbXTEWrLfFE7QsFLqgCfAsnrjFVtabXSlkrsVD1KjlantMoDysVrcBMaWuH2fpQ4IIqwJdw4mDy0oZZcU1vRTGoaN0qdKHABVWML+HkZTAxFdf0FktNA0UjCeoo1BYTNTZTFa0jha6h/woKXFDFVPzTGgpNb9Ho/TdR1dSyqrWYqWgF9R6pfaHABVVAxe8Qh6a3EFzz8UOo5tdxAcjHlzvEvQ4mBppeAMJHaAb+hkfTi5oTAL4M/C0n0PQCEA5CF04AgHDgS58TAAA4AeEEAAgkCCcAQCAJXZ8TNL0AVD++dIjzuDpoegEAdvjSIV69ml6roSYOKVnFC8DIouLhJGpqriRzTBA0vexlSpQy6LWgipfDEOEFgI4vHeJuLJhB0fRmeZkAAGXHl3Di8XVuAorxXdPb35ttwpTNNL3JZ6hRGcqbu7sNtSFjzShXk8vLWAan5Hay/aitn1EB82bGY1o3M6HmBWHAl3BiOKCCr+nNmDBn9jbS6rQJU3yoo0mKppt8pBxNXM6qEa08TklzW2WeJreeFrNGV29Gpr25RhVw9r5Zo5tqM28GQs0LwoBv4cQ1puBrelVYiA9tJNErPqaK4SHRwDMEV5uo87DPlssjMdINvfKJLdrLbCw1ubkYVMDymLr8TZCr7zUCNS8IAb6EEweTlzbM8ml6FeJDG4+lcgyWTUp/qybzJxWY40iTWyRQ84KQ4Es4eRlMTCU0vVwLqtOfglIznepEnSRPt8vlA3HqUh98+cQW7aUp+ZpcG9Qxe/VQESHUkTBodPX+LKh5QUioeDhVr6aXFbXcJcMdw6LJI/tnMrpdreOZm0J8y4FWFqOoebPOVJNbT42iSZXpEM9FO2ZK7Xum7PMyaW7VQ80LwkHF7xAfUZpebmJFB6ndtye3FIJrXBDMgeDhyx3iXgcTE1RNb39XPNPEAgC4IjQDf4Oh6eXmUJTi6X4e7jQP8jddqDmBYOLLwN9yAk0vAOEgdOEEAAgHvvQ5AQCAExBOAIBAgnACAAQShBMAIJCERtN79tln08aNG9WcMyZPnky//OUv1RwAICj48m3diSeeSPfee6/nAXXcccfRM888o+acccYZZ9CqVavUnAk85KNNHx2n7lmSd33z0JFi7w3ie4vaKNHUaTpYeLi7maJxohjuPQIjGF++rRNh6Eoyx3it6XVE1uh+MSVraYiHvMnR/XpwGAbcuiJCkZTyLGXRT12ZOzhdUuy5ABBMfOlzcmPBdKrpPeCAA2RNyM3E21hiHN3PiFBq8fBW77o6ytgAdNi22dRkPlgYgBGGL+HE4+vcBBRTSNPLzbrnn39eToz+2m7ibSxhZ/hAnGJ5VRG9hqKaZ7p0TjcJcI1Ljf7P0vfmUNvKChY2TeoMU3dHimKtjWpew5ly1825aOefpf8FIID49m0dB5SXml4jHDylw+pc7lvStCj5FhNenqvWFR98U32vGaxIMfqZ+khsmXGUK5wpd92ei1H/C0Aw8S2cuMbklaZX59RTT3X1szDs0hYfbOVRMtUsGbHS91pQ3yr226F5kthgUNdu4ul2pdw1YHsuBv0vAAHFl3DiYPLahsnoNSanPx0jNb0RSqSrOXa40PfWNIi6UpL6+rupI5Vxj6fJ6pR3q9xlSlAJA+AzvoRTOYLJiPOakQ0iMDIVk2HqSw5QpLaAmclK36v6efIrOqJm1l5H8bY4iapMfq3JtXLXgOW5AFAdVDycyqnp1XFdMzKjfjoN6k2imVHZx9OTd+NRrlpXU+mKArWdXm5DfauoETUZtLkGeJlj5a4H5wJAgKj4TZjl0PQyl112WfoR41xzchJQFVH1AgBcEyqf07/8y7/Qe++9p+acceihh9IPf/hDNQcACAqQzQEAAglkcwCAwIJwAgAEEoQTACCQIJwAAIEE4QQACCQIJwBAIIGmF5peAAKHL7cSzJ0717HDyQ0cTKzpdTMVDDPDMJG0+0g6kkoxTvI4O+uhJKzpnelo/1bj9QRZ52iznilenR8ApVHxcIKmlymHptdA1jkWAzTCwH986XNyY8GEptcfoBEGfuNLOPHAXzcBxYxUTW/2/kzcTWszyzPyOZtaisfnB40wKBe+fVvHAQVNbyFNL+8vTnWdetOSjZzG0BEf9g6iuFpG8ViBZpPX5yfWgkYYlAnfwolrTND0FtD0yv01UaP+CRVNy/amAcrsUnzY42qbvGUmQCMMqghfwomDqRw2TL3G5PSnY8QH3xdNryuGaSilXtoCjTCoDnwJp3IEkxHnNSMbgqDpVfvLNK1ESCQMNSlR80h3WkuNr3GZCdAIgyqi4uEETW8O9TaaXrU/blLKfck+GmM/TITqBrXayUzZN1Woj8bj8+Nl0AiDMgFNLzS9AAQOaHqh6QUgkEDTCwAIJND0AgACC8IJABBIEE4AgECCcAIABBKEEwAgkITu27pYLEbvv/++mstmv/32k/c2HXvssaoEABBEfLmVgMfVlUPTq2O8GTMXDqZ9992X5s+fj4ACIMCEStPrlF27dtFtt91Gf/jDH1SJFWbjzazGoAEAvKbi4SRqaq4kc4zXml4OKKvaFQAgGPjSIe7GgulU06uzcOFCmjhxopzYEzVu3Di1hGQg6dPOnTtVKQAgiPgSTjzw101AMYU0vczS322iK5/cQYdf/aKcvnzHAPW/sUOG1OjRXl9qropWL3avnnWmuuUy1azsz1Xzauum5W5sBWjWJHEAVCu+hBPDAeWlpndhzxDFHhmid7bsouZZB8vp7b/sovmibNFT62n8+PFqTY/IU9HKwqLUs85Ut9q65mpeNnZ2Kue3OAcWwPWYWCsBqCJ8CyeuMXml6eUa0+Ov/JmWtB5D72/fRVc1TpUTv+ayR156j3pXbc1q4pWMmYq2WPWsK9WtlZq3nhaLMGwT+6CCXicAgo8v4cTB5KUN867ejbRh00d05i2v0ebtu+nEm1bKiV9zGS/70dMb5G0EzplGtbo8TUeGTx1N52SwVNG6VM+WpLp1quYFoPrwJZy8DCbmN+u20qs3zaLrz51K3zj9CBq8ZbacWk//DH0rOlUue3XtNpf9TjU0vU7UgmKZvhuW/A80NWbVSrJUtI7Vs4ZbElyrbq3UvKo5x23JNjxSCVQ/FQ+ncmp6R40i2iv+6eyVL9V8Ebea1i8WNRldQyumtlSMknpNyEJFW5QG17HqljFT83KHeBulYq3idT21xlLUhg5xUOWEQtN7zq2v07NvbFFz5vxN3URaenUk3flenYpernF1UG2ylEeNAxB8fLlD3OtgYq46azJN+fQ4+tX1J9Ck8WPole/OkhO/flqU8bKrz5pCDz/8sAwlng455BC1NQAgiIRm4O+NT66V38rtP3Y0nTxjgmzFvbhmG+34ZA9d/MXD6N/OO0pbsapBzQmMDHwZ+FtOfvHaJvpR70Z69a2tcn7WtINkjemcEybJeQBAdRC6cAIAhANf+pwAAMAJCCcAQCBBOAEAAkmo+pzsFL0MNL0AVAeh6xC3U/Qy0PQCUB2MyA7xwGt6pQ8KKmAAqiKcRpSmV9oIcJMlAIEPJ7eaXjug6QWgeqiaZp0TTW9lsdHopptk2fPmOl5tnYzCN2cfWdpfK68TY3Y+TssACB6BDyenml4nbHnwEXpv4ffUXIlYanStMdXxSqwUviKopBZFbZeMUarNrD+KAydKyWhS7V+dj9k5FnHeAPhB4MPJiabXCdv7nqXN93TTB4/+tyopEUuNrg1mOl6JhcJXmjd1mZwgS8trQEnnMs4nhdk5FnPeAPhA1TTrSmHPps206aZ/p09fNVeVOKFYTa8FVjrecmJ2jm7PGwCfCH847d1L7153A+130omqwClFaHploBlqNv29mRpSAR2vKUr726sHiAi4joRBy6v3TdU0UDRirQfOV/2alwEQJAIfTm40vWb85f7/pF1vDtHu99+jLT95TJU6w72mt4Za2pso0aY6nHv5cQeKegsdry2a9jel708+dsrsySr6o6EyemBZIzI7R0v9LwDBItR3iH+8OkUbLrycJv/kx7Tv8TNp28+S9H5sIdW8+WqVanoBGBmE/g7xfWbWUc3vnpfBxEw4LyqDCQAQfEbUwF8j7BCPx+NqDgAQJEI38BcAEA5G5MBfAEB1gHACAAQShBMAIJAgnAAAgST04bR161ZauHAhnXrqqfSlL31JvuYyAECwqXg4rVy5Ur0qP7t376bLL7+cRo8eTd3d3dTV1UWjRo2ilpYWuQwAEFwqHk5z586tWED19/fTPvvsQ9/85jfp4IMPlhO/HjNmDD377LNqLXPYvZQ3cp+HfvC4EC9VuobhJJrPySFFnUOOKwqAAFPxcNq+fTvNmzfPVUAVq+ldv3593oMMuObEZcPD9p/Q+sYmGshxk/T3JqiJR916pdLNMhWIKVlLQ07TKescEDogfPjS57Ro0SLHAVWKprempibvQQZ79+6VZbzMFuk96jXUZPqpN20E8AijqYARgdPi5f4BqGJ8Cac5c+a4CiimGE0vd4Dv2bOH7rzzTvrzn/8sJ37NAcXLbFEakrSuhPUnaV2KnUpXa5pxszDjSjJZnxfWN1LTQJxiOVUeR9umy/kny+sGKB4Vx09vaKPjXZs536ymq8l16MfJaISzMVcPWx07t1ybT58DN3GbM4oaMLLxJZwYDqhLLrlEBtS2bdtUaT5ONb07du2hxaLJ97mFK+nwq16g429YQd9PbqC7Ou+jDRs2UHNzs5wSiYS0F3C/kz011BDN+I7STbo8xIdXqkxU06yTpFeJm4UJPdlEsKUiRMk+bV/DfUmiWq4v1dPi1bytpjrRP8TOttXhfXRSE0UoxucglS4W2l6JCLEOorg8V9F0jXdlQsjkOjSsNMLi6GbqYVMVsNk56aoXPgdxfG7i9rSIdx4AH8OJa0wPPfSQrEFNmDBBlebjRNPLwfS3t/+eht7bQdt3fkI/n/852vHxXtq4eRdd9OO36PY7O+nnP/85JZNJeTyuPd19991qa2tqGqKcCuJjNUxDIiGyMkFH2jFVrYVrBG2iDsN9VdwsTA3JWkB/b4qi7Zl9cb5ktLz8ARUfVuVtkgHleFsLrLS9EhFicRUAXHMTZy/z1+o6JBYaYSbdoW9QD5upgC3PSYSrCMI2sT11mrmqwEjFl3DiYOIaEwcF16BK5bZl6+n4qeOpIfIpOvO4T9GUSeOo/tiJ1Hj8p2R55zPv0eGHH04HHHCAbM51dnbSE088QS+88ILagwXctKMk9fWLD5Z4ZZ0JTZlObZ64qqBvK5pdvSmxbT3PD9Ja/pCa7aumheKxiFZjcrutZ5hchx1ZHfoG9TBUwMADfAknL4OJ+a+X3qcf/++fqPWBN+mnL75Htde/TI+89B59/d6ULOfX/BhynQMPPFCew/33369KrOCmnWgCtcW5umLe3FAq3XxFrrZtMtZBKbktz6eot2sws6/+7kxfkqwVDVBEVs8cbGtHAW2vKZbXkYvWByVXK6AezlIBW56Tas5xO7LNxa0UIPRUPJzGjh3rKpicaHp3fbKHBm+ZTdee/Vn6/gU18vUPxM+rGz8rX3+yZ4+8EdPI7NmzaWCgsMibm3YRu2YNN0tEk0y0h1TzRkyqqiCbheIQ+rY8n0qIZpq+r/rpNKg3o2ZGZT9Nj2r2FNw2i3pqbDJ2iFtoe22xvg5L6i3Uw4Z7t7IUxnnnxP1QbZSKtYqj11NrLEVt6BAHior7nJYtW+ZZjUnn/3znFVrz7k41l8/0Q/en1783S80BAIJOaGRz/750HW3c/BE1RCbRstc30U1N0+ian66hC//6MOpb/Rf6zEH70oKvHKnWBgAEndDI5q6dM4VSb+8UwfRnenrgL/T2ll304uA2GVSr/7iD5p8zRa0JAKgWQhFO++0zmp665jiqOWR/mjBuDH3l9tfpU/uPpSMP3k+W83IAQHUBhzgAIHDAIQ4ACCwIJwBAIEE4AQACyYh6qOZ+++1H1157LdXV1akSAEAQ8eU+Jx5XN2tWeW6IZNvAHXfcoebyueaaa+Qwlvnz5+dJ6AAAwcGXDvFKanrN2LVrF9122215Erpcsp1KjGFMmQ4P07Ad4mGyTaXQh5DwcBDpafLpPAAokoqHk6ipuZLMMcVqeq3ggOIaFkvnrMhyKjFKKaJ7lZjhoZQaqBs0eDBtgpo6V9Nq9iN5pRUGoIL40iHOA3+dBlQpmt5cOJD0aedO67F4EoNTiWHJW10sRpR2HDl0K/mGhX8KgCrBl3Digb9uAopxoullgdzEiRNp/PjxDkyXBUg7lXhGC6LahulUl/aKr6XBgTqarmeTqeJWYaXFzSJXYasXG/drbGqqJmN3xgCg7ZvLM9reTJmhWWfYZ3N3t39NTwBs8O1WAg4oLzW9H3zwAV1wwQV0yimnyD4l7vguLaBqaHrdgKooiSCSkjdWkyhzZK5T3EZxm9biSiVJzCQIrLS6vN841XHzTG2fajMGidj3YKM6pq7czdb26gqWDNn7jIsAThssAQgQvoUT15i80vRyPxYL5O666y4ZSLxfVvGOGzdOrVEc6X4nDqK66VLyJlp7st8pq7+pgOI2rcWtaaH2Jj3wDFgpbOV+DU98ydte7LtVLTQqd+3gfUZipG9W09IutgMgePgSThxMXGPyyoZ54YUX0po1a6i2tpYaGxtl2dKlS+UDNUtC9Tv1iyDSH24gJXCDfSb9TU4Ut+wiVy8BALb4Ek5eBhOzadMmeY/TjTfeSI899pgsyzVfFoXsd4oTW3rTncuss03EKW7sb7JV3Bq+4VM1JC3nDP1AVgpbtd/0l4bD3dRR6rPzeJ8DcepS+xzu7kCzDgSSiodTOTS95513Hm3evJkef/xxVaIdh8tKqz2xuzsiWk/Ghwpwv5P4ke5vYuwUtxGqG9RE/zNlX4/ZE0astLrafvmpLNr23K9V6hNKxD47RXNV7TMm4hfNOhBEQqHp/fjjj2UfEzfl+HHjHEwbN26UzbwlS5bIvidexwjfLf7AAw/I9Uc0/M1ddJDaTZ5JB4Bf+HKHuNfBxHDt6LrrrqP+/n7q6+ujRx99lI4++mgaHByU3wh++OGHpfc/hZT+rnj2I9EBCAihlc1xk477obijfMaMGfJJvy0tLem7wg8++GCKx+MjsOak3bYQTz94hjvyUWsCwcKXgb+VRA+oSZMmyeYdAKA6CH04AQCqE1/6nAAAwAkIJwBAIEE4AQACCcIJABBIKh5ObiRzAICRS8XDyQ9N79LfbaI58dfpsKuWy+mcW1+npCizoyKaXl2lK6ccB1SxSFeTzTFt4fPVz0ebbC+vKAzvidtzLena+O028WkV/D8EflHxcGK9iRvJHFOKpndhzxDFHhmid7bsouZZB8vp7b/sovmi7MYnc90lGcqu6eUPWhtlTAbJWhry4jNSspJX80DpdgVTuYKkQPA6oeC55hyjxGvj/9OMykajvzeRNk64w4PrB7b40ufkxoLpRtN73HHHpSeGa0yPv/JnWtJ6DL2/fRdd1ThVTvyayx556T36f69tluvmUW5N79rB7GEj4oPXgtu0ywv/n6ZNpkw/9ZZqeQBlw5dw4vF1bgKKcaLpXbVqVXpi7urdSBs2fURn3vIabd6+m068aaWc+DWX8bIfPb1BrptHuTW9LIcbiFPM7E+v6b60v9QLFjSLsmZqbs5pcnHzhJ+0otbL7NaJ/rdQkzJ3H3yMjApYbxZxs0lfJ6upZDhWc/eQKmSM5+rkGMVcm6FcqWnSFWKjzdTmPS+kQi54/QbM1zG7DnXs/sx5cflwN///a/PauWjbpn+v0r8H1Y8v4cRwQHmp6TXjN+u20qs3zaLrz51K3zj9CBq8ZbacWk//DH0rOlUue3Wt1bHLrellnS5vo2lSMr/L9vtK1cZFeQ/1tGc3O2XzpF0ZN9PwL66V/tfmfHWjp/4h7e+ieF2nYR/ZKmBdrFe/WO2PlyU61HXysRxogR0eI4PdtVmpjTUFTkrpQjNNugLvRwEVsv31Z2O6Tt61a+tm/e4ozU1MvIPZ56Lrdvi1uA7uKuAn7qg9VDO+hRPXmLzS9Bqbc3qTzgiP7d0r/uloY3/VvM3gnfJrevkXS/yiKWeTDKgC+0o3I7nmla7FieZJKqPeTWOr/7U5X/1Dqg8Ils2htsxfZyvSHfxcq1A41QI7PYZOkWpjaTJN9oloYyupekJNoffDqQrZ7PpzMVvH8toNvzvy2Dn//+lzYUcXUZvYJ5n6wqoTX8KJg8lLG6axOac36ZgvHHUQfeG7K+kHyfXU9b9vU+31L8vpx79+W5RtkMu+UGMdjPKXphKaXvEBiscihpqQk33VU2ssJf/Cs80yFW1w+dfSyTEUsiOaaz2aNC9TyzPAzaJ0B3+SxOW4w8kxvEBvrveLcJO1YVXu5v0ww8n1W61TqWuvMnwJJy+DyY6rzppMUz49jn51/Qk0afwYeuW7s+TEr58WZbzs6rOmqLVNKKemt7/bUO3nPq0BrSZmu69stFpAF3Ul6/JrEEwB/a+TYxipaemhpPhE6c2iLIwd/PI6Zal2LBdaYNtjGClwbemcF4GQrTbmpp1oKvF/qh7oRb4fWVhdPze19H4yy3U0HF97Hqo5x+3RtkL9h9VDxcOpHJpendymXfT/fJou+utD6dIfp+iQ8fvSnb3r6Udi4teXibKLv3gYnXPCJLmuOWXU9NZPp8F0346IwLpO9Rgnu33lIMMzIZqcxnMxYq//NT+GoXkjJtnUSDdFZlI0rgchvw9qXd62vlX2h0R5vdgg1aVrDtzkcKAFdnKMLIpXG3OoR4xNJLWNo/c8jdPrN2C1jum1O4X73tooFWsVZ6TVpttC0iEeCk1vIX7x2iYRShvp1be2yvlZ0w6SNSb7YAIA+AV8TgCAQAKfEwAgsCCcAACBBOEEAAgkCCcAQCBBOAEAAgnCCQAQSBBOAIBAUvFwciOZAwCMXCoeTtD0GjAMWyjsVHKI9BLZHNMWPl/9fHgqdj8AlE7FwwmaXkXWCHUxBVDTK4ebxcIxTgtUH770ObmxYELT6x/SvTSg20ABqCy+hBMP/HUTUAw0vVoT0R9Nr4YzDW939vGzjpPbVM4AfS3IxZdwYjigoOnlbTRNR+ZDa7+v8mt6M0j3kkEX417Dm70sW5mbDfS1IBffwolrTND0BlHTmylnt1DWBzrdge9QwyuPY63MzcJs39DXjmh8CScOJi9tmMbmnN6kY6DptcPqGJkO8bRDnOHmmZli1gus9i0796GvHan4Ek5eBpMd0PR6qOktRsOrjmOuzBVNLb1vCvpaYELFwwma3qBrei2oL0bDqx3HTpkrsdq34T4w6GtHHtD0Am/hJlp0kNqNTUIAXAJNL/AcviWgLRWjJL4ZAyWAcAIeoN2uEE/3E3FHO2pNoDQQTgCAQIIHHAAAAgvCCQAQSBBOAIBAgnACAAQShBMAIIAQ/X9wI75k5ow+zQAAAABJRU5ErkJggg==;" vertex="1" parent="1">
          <mxGeometry x="40" y="170" width="295" height="691" as="geometry" />
        </mxCell>
        <mxCell id="Csk-3HbRqVcOM9MHtjag-6" value="" style="endArrow=classic;html=1;rounded=0;entryX=0.102;entryY=0.471;entryDx=0;entryDy=0;entryPerimeter=0;" edge="1" parent="1" target="Csk-3HbRqVcOM9MHtjag-7">
          <mxGeometry width="50" height="50" relative="1" as="geometry">
            <mxPoint x="190" y="680" as="sourcePoint" />
            <mxPoint x="400" y="670" as="targetPoint" />
          </mxGeometry>
        </mxCell>
        <mxCell id="Csk-3HbRqVcOM9MHtjag-8" value="1" style="text;html=1;align=center;verticalAlign=middle;resizable=0;points=[];autosize=1;strokeColor=none;fillColor=none;" vertex="1" parent="1">
          <mxGeometry x="230" y="630" width="30" height="30" as="geometry" />
        </mxCell>
        <mxCell id="Csk-3HbRqVcOM9MHtjag-9" value="" style="endArrow=classic;html=1;rounded=0;entryX=0.544;entryY=0.543;entryDx=0;entryDy=0;entryPerimeter=0;" edge="1" parent="1" target="Csk-3HbRqVcOM9MHtjag-7">
          <mxGeometry width="50" height="50" relative="1" as="geometry">
            <mxPoint x="630" y="300" as="sourcePoint" />
            <mxPoint x="660" y="320" as="targetPoint" />
            <Array as="points">
              <mxPoint x="660" y="300" />
              <mxPoint x="660" y="310" />
              <mxPoint x="660" y="320" />
            </Array>
          </mxGeometry>
        </mxCell>
        <mxCell id="Csk-3HbRqVcOM9MHtjag-10" value="2" style="text;html=1;align=center;verticalAlign=middle;resizable=0;points=[];autosize=1;strokeColor=none;fillColor=none;" vertex="1" parent="1">
          <mxGeometry x="660" y="293" width="30" height="30" as="geometry" />
        </mxCell>
        <mxCell id="Csk-3HbRqVcOM9MHtjag-12" value="" style="endArrow=classic;html=1;rounded=0;entryX=0.445;entryY=0.668;entryDx=0;entryDy=0;entryPerimeter=0;" edge="1" parent="1" target="Csk-3HbRqVcOM9MHtjag-11">
          <mxGeometry width="50" height="50" relative="1" as="geometry">
            <mxPoint x="630" y="320" as="sourcePoint" />
            <mxPoint x="610" y="630" as="targetPoint" />
          </mxGeometry>
        </mxCell>
        <mxCell id="Csk-3HbRqVcOM9MHtjag-13" value="3" style="text;html=1;align=center;verticalAlign=middle;resizable=0;points=[];autosize=1;strokeColor=none;fillColor=none;" vertex="1" parent="1">
          <mxGeometry x="620" y="380" width="30" height="30" as="geometry" />
        </mxCell>
        <mxCell id="Csk-3HbRqVcOM9MHtjag-15" value="" style="shape=image;verticalLabelPosition=bottom;labelBackgroundColor=default;verticalAlign=top;aspect=fixed;imageAspect=0;image=data:image/png,iVBORw0KGgoAAAANSUhEUgAAASUAAAEcCAYAAACBEqISAAAAAXNSR0IArs4c6QAAAARnQU1BAACxjwv8YQUAAAAJcEhZcwAADsMAAA7DAcdvqGQAACo0SURBVHhe7d0NfBTlvS/wHy8qiC/Ho3C0KBKCRoL2VCm0WHsl8YIajzUpV0XtAWpKwZi2SPecHrH3nvZT4fZlBQ/GtIJBtFWrJV1f06NpE4ooSkTtOZIYIYQXUY716lFBEUHu83/2md3ZzczubLKZnV1+Xz7zyc7M7szssvvP8zyb+c2AF1/afAhERAEx0PwkIgoEFiUiCpRedd++/a1r8Pbbu82cNyNGnIzldz9o5oiInPWqKFV+rQwrV602c95cP/t/4ZHHWs0cEZGz4HTf2n6Or1deZKafo80sdrcedZXz8MguM5upXQ8h5PR4OY7vP4TMN6uORz9uJx75vu34nZ6X274Dp4+vcYxtO1l/7i6vewq7IvPw9WXrzVyUXubp/733r4n3feS3tmUXIRTZaeYy16MoLf/zDnzxx+v0JLednHjScN3yyWQ68cSTzKMdyBt1EXDzI3/C72W683Ts8vLu6ouRVyP8yK9QOdLMa+oN99vTccdtVyNhcW+5PS/HfdtlqxgEUNrn3s/U/8nSdWW447uTzQKxHpF7N5vb/cWPfWRL395/E7+7ChesW9TrxycUpQ/3HcDyNTvwD1/4Oz3JbSennDISv77/0YymSysqzaMdvLkdW4tPx+fMrLxxKyea237adSqqslWQRFCeF8Xs2tAKXHB+wv/xrsi9wKxvY4yZ7w9+7CM4TkPljDG4rzGxNeqVY/ftR1ecoadseKnpDTyxbBPGj7rQLHEw8aso71qOpU5NPt3ct7o/F6HOsQWVXNmT56Vpn7yNpPvIfm6cje/02I+5XyTeDXNumk5GrS5o6j/ktn+Grj2uz8u+7+Rjk3U/RAs2474b1TKrm5HwOljdFLOdtvg6OW7dTTDz9mOVZrW1PLn7EmPbTyiS9EvJ8RiSOb3Wdvbnno3jd3jdXe1E2zpVkyadZuYV9ZyW7pyF2klm3klfX5O0++j5OsSfd3Rd3TJ5Tezdf2uf1mscfd0TXm/7UITrcfbm/Wffj8v/9+dOx5jtO3rVVU0oSpff/qL+aXXfxJSfPq9/ZurQIWDDo9ux8Q/b8dbm/8YffvmfZo0T9cZ6RJp8s5OesHqBblyO0bdY3Z9vY9si6w3tlbxos7HuglXRbaiptsc7N91+1H/Qzq9G191yMbbe+6DLBzKZ2/OyaXsQ951+q+3Y5DG3ohxnYOadapnuZsjxteICmdfHADwUe9OqY/stcJM5tpZFF2EpbnE81onfNY+X7bfc6/A6Jr4ON6FVvTktqY7B4uW1TpbN40/nDbzRNQYjY80kdbxL1HOabu/KJcvCa5J2H8L2Oqj3H+61d382Y9tp8ppI0U08nvh7VVon6vVbH/9l07b+KZTPkILtdpxO/19u7z+Xz0eP96/sWRk5CqO7tuNNM5uJhKK055MD+MOCSQmTLPPidz95Gc88uBUH9h/CZ599hvWru/GXP76BEaOOM/dIR37TWU/YfIB37cA2XIwvxZ7o1bi6fDPeyOSZ7noO67ouxtVVtt+OydLuR/0HWW8qaf1gK3Z5/kA4PC87+Y3S8sOEFkEP+vjMby75jbToKWzd+YZZqY5tgely6mM7I94SSD7W2KC7/CZ0IPsp/jaqzOswsmqWeryR8hgML691D1k8/gztiixSH8hbUo9v9fE18bQPzfY6OLz/Yq+J3qfLe1Ver5ZnTBFfjxe2m+N2O06v/1+p9un6/j0VpxZn8jmJc+y+9cZ/v/0R9n90EI8u+Q+svX8rNq19E58vOw3X/J8vm3t4pJ7wTbPOSKj4BcHteanlYfUb5iYs0m8Yx9aUdnF8wFymhIFaD6T5HRt0X4WZxWZ5Rvp4DH2RleO3iw48b7032or9umoJbFVd7e9k/O1Yqtekt/vYiV3bzc2MTEbVrK26FSRjWNsSxs766f/O9f2b3Cr1LmtFSVxW8wV8smc/Nm/4L4w7fyT+56yzMWjwILM2BdWXjjdVpd+/GWNOO1U9YdUExFN4wXqi6o35UIutYsdIVbb9Zml7Jv6bdOT5uKD4KYdmtY3n/WTI7Xk5GFn1K9yhita2NxyO0xxfyueQjn3QXf+G1EsT6Sb3ckTM6yBv7Pjr6OEYvLzWveXl+NOy//aWbortQ6pasmNUi6jHN699ek087kPbjHUbzHZMC8bx/Wf26fZeHTmpDFj3ICL2sTO34/T6/5Vmn6LH+1e3MG1f8mQgoSgdc9RgXLpkQ8Iky7x6sv4VDDnmKJRMOgUdz+3CH+99FQcPHDRrU5g4Cm9YTcvK2bqPGtZNSvWfaro90d800i92Gsw0/WnrfqoxEmti6+7TrRht/bZKqOYWr/vJkOvzsrH9HdN37h1jmtKT8SXVPI4PNEaPD7bn4DpQ7WbiNZgJ9VtaHrtkO0Y7tjTUfsy4juxjKcpsr6OXY/DyWveSp+NP5zRMvEB9Zq0Pvyd9fU28OgOjd0ZbG9KiGn2L2/svuk/X96p0rU5/Ci2nz7J1Gd2O0+3/y/n957hPx/evIr9ETh/lUHzT69VfdP/wlpvwg3/5sZmLkjGlkWeegPKZ4zF48ED86b5X8R9romNKb+/4QN9nwapL9U+inJFu4BLgpmz+6UefrUdd5b049c7s/P2WfEv5wmQvXzL0FxlAV33tBb17Pr3qvv3N8SfgZz/919g0QP37x0Xn4+JvfR5HHDkIAwYOwEWzzsF5FxfFChJRIMjY3gWt+E6vWzQBJ10ra4A7R9qWSa/A3lLLTL/nKT27+nXsfO09TPqHMRjzheFmKRHFZaOlFP16/74u+So/h38xnwUMeSOiQMnqt29ERH01YO/evWwpEVFgsKVERIHCokREgcKiRESBktMxpWnTpmFXhmfsjRw5Ek8//bSZI6JCk9OiNH78eKxZs8bMeTNlyhRs2rTJzCVrxcJxNYiYOVFV34HFZXIr1ToiCoped9+6u7vNLWeLHt+BYXPX6Ulu+6cUoaYOdHSoqSmEzpqFqhxZbOvUxIJEFDy9KkobN27EVVddZeZ6ev/jg1j8xA5cN3mEnuS2k6FDh6K2thbPP/88Dh48iH379uG5555DTU0NysvLdasoeTr66KPNoz0oGoMSdGJr6vpJRAGScVGSglRdXY09e/aYJe6Wzz5TT25Wr16NuYvm4uE9D+OyBy9D5epKNH7ciBt+egNeeeUVrF+/Hs8++2zCJF0+z1qbEamqRXWRmSeiwMuoKFkF6ZNPPjFLnJ118wb90+q+iVPm9zwBcnX3atz6x1vxzt53cMlZl+jpr3v+ilubb8WyZ5dh2LBhGDBggLm3V+0IV4zDuHFqqgHqE/potnXj7N06IgoKz0XJa0ESH6ju25afTUqYZJldy5YWPPnak7jta7fhvY/ewzcnfVNPcluWPbbpMazbvg5HHHGEeYRX9jGlYtSNm46GWPfNPqa0GBxSIgoeT0Upk4Lk1T1t92D3h7tx7W+uxfv73sflDZfrSW7LMlm3csNKHHXUUeYRvVBUjorSdnRtM/NEFHhpi5J8yzZv3rysFiTRvrsdT37rScydPBfXnHsN1t64Vk8zzp2BeZPn6XWvvvkqBg7MeNgrrrsFTe2lKB5t5oko8NJ+4ouKitDW1hb7Gt0+uTlu6CCM/cGGhEmWOZGAuEPqn+WQXJvJkulwkmYbN6poQkVTo22g2z6mNA7T4/06IgqInP3x5MzfzkTbjtQBzpNGTcLKK1fiww8/NEuA+fPnY9WqVWaOiApNH/pGfTN74mycfOzJeOAbD+D4Icfj8erH9SS3H7juAb3u+knX4/7779eFyJqGD2d6JVEhy+lpJkvXLtXfsg05YgjOG3me7sa9vOtl7Pt0HyrPrsT3vvo9c08iOlzkPORtTdca/S3bpt3R89nOPuVs3UK6cMyFep6IDi85L0pERHY5G1MiInLCokREgcKiRESBwqJERIHCokREgVKQRenAZ4ew7LnX8IW6P+Ckxasx8ZdP4Tev9OaUkm40TI+fljJueoNaku8kFtienGDTujD+XLMV7dLdgOlu+yNyUFBF6eNPD2Ljm++i9rE2PPH6W1hSMQEvzLsEN19YivAzr+H//tkt29uB/jBVoKvWdr5fGGgJTAhTiuLSG/J8JX/Keq5NxdiajedaVI3GDvv5h0SpFURRknN4w+s6cMaSx1Hz2AZsfOtd3F31JZSOOA7DjhyM80cNx31XTUb986/jrQ8/No9KRbWQQmGUJF9YQH3Aqgs1hGlbF9pLixELVCjk50qBVhBF6d6XtuLfN7+FP1ZfhEe/MQWP/+MUHDko8amNGDYEk1Vx+knrq2j/6wdmqQsdeVKFqak+lLolFe/aLYy1KkwLpiHeFYqnEaRapyRs0959SuxGLmy1rsxiUg+snbs93rZ8esNWszBJ2VRUtYcRcmp6OW43+lwWLpyulk3HdHV88ddAka6g7u4mt+iSn4u12GkfLvelglYQRelXGzZj0dQv4G+GJKZUFv9v1R+x/awcdxoGDhiAr/16DR7t2KmXubK3GnpQH7SKaEsq2tWRq6bYP3iqWHRNja6rr0J7eIX5kAm3dbJNiVox26wH6vQG5YNZgSa1Ti9X0+KyMixWd6iykjR1c87t8YnHGkZTwmWm4mSb8viKpALgtl3Rjs7isFreiMbaKkSa48+ytTmCqtpqJPbanJ6LLHfZR+sKhEvqk+5Lha4gitLuvftw6nFDzZy78rF/hx+WnY2Gr38Z//qnV81SF+1dcA2s7N6KTlUSYi0p1dWprbInXKpiMceslBZIwhVVXNbpbdrynmpUO0g2aFpttekGZVwfr5aXhmDtsqi6Vu3TTRGqG1UB0EXWFCa37WqlqCg3xyXPJdKsyotoRXNnfJ8xbs/FbR+ji1EaqWHu1WGmIIrSWcOPQ9sb75i5qORWkvVTFJ1wDN7ZmyJJU8foRmD7xe+TqvhAs0wZNw36+nhDFdlwqNTW8vGy3TLMCXXqFk53Qx06K8qTWknpOOxDD5JL6y6U1HqjQlYQRelH5efgX55+BX/u/i98cjB+gYKuHy+NTZY9n3yKn69tx7SxJ5slTlSLQbojVmvB0t2ABpnX15OzFS21vC6SZgwqHbPNeNfIMAWyx/Jkro9Xy9vDWGGOVQqGY/etVT232EO70dLUrnqwqgPrtl0HReUVQNMKrGgqcW7ZuT2XNPsoqm5EkyqSnbyA32GhIIrSl087CfdMn4yVL23FhDv/gGOOHIwjBg3Ep6ZA7T94AEcOHqyXf+WuZuzdfwBLLpug17kqWxzrxuguhUwh1QXUhacMi+3r9HhIX6+OEt2m6sPE96cronSp6lFiWx4tlGWYqrqM8YFut8er5fXRAivLQqhw7r6VjUGX1X0aV6HHchp1YXHbrgMpOqq4REqmqkc5cX8ujvuw/d1URdil0FHBKdjokkvu/DkmjSrCrMkXYtX6Ndi4czuaav7JrCWioCrYorTzvf+Hbz/QgLVbXsP/GHsWll9bjdNOONGsJaKgKviQt2E3XY+9S1eaOSIKuoIYUyKiwsE4XCIKFLaUiChQWJSIKFBYlIgoUAq+KL3++uuYN28eJk6ciEsvvRRvv/22WUNEQeRrUdq4caO55Y/Ozk5cd911eOaZZ/T8okWLMGLECH2biILJ16I0d+5cXwvTbbfdho8++ghDhw7FnXfeifPOO8+sAXbv3m1uOWnFQut0Bz3ZY0lyTOcOBeh4iLLM16K0d+9e3HDDDRkVpkWP78Cwuev0JLe9OnToEF544QV9+9RTT8X48eP1bbF+/Xpcf/31Zs6NySrq6IA+LSuUq3xuKZC2IqTPnGe8LBUu38eUfvKTn3guTO9/fBCLn9iB6yaP0JPczsSAAQP0z82bN+PKK6/URVG6cjfeeCM++CBN+qSNziBqb0ILWydE/c73onTxxRdnVJjE8tln6ikT0lL63Oc+Z+aA7du349prr0VtbS0++eQTXHDBBWZNpqItl2gMrIltTYhytcedmFZOqz2O1lbZHCNg7duX5cmxt0ktJ8dtMEaW8pfvRUlIYZo5c6YuTB9++KFZ2tNZN2/QP63umzhl/nr9M5XPPvsM9fX1OPfcc/V4kmXLli04cOAATjjhBIRCqk/mkc4gKq2AFbIYj4GVuBJVJNJF49ap7p9Zp/qBZp08Ll3MrKxLjr21c9kGY2Qpj+WkKEkL6b777tMtpmOPPdYs7ekD1X3b8rNJCZMsS0UK0l133aUHuKWbNm3aNIwdO1YXp2HDhqGiogKRSAQnnXSSeYSbeDyrZPnUN9rzpm0xsDrKNU00btg81r7Oa8xsKoyRpQLke1GSgiQtJClI0mLKJqsg7dmzB9dccw3uvvtunHnmmXjkkUfw4osvYsOGDfjFL36B4cOHm0ekEh/ojraIsqEbWzvNTS0b8bWMkaXC4ntR6q+CdPDgQdTV1emCNGPGDKxcuRKjRo3CrFmzYgPe/cJEubpH47ajyRoht1+6KYOYWVeMkaUC5GtRGjx4cEYF6bihgzD2BxsSJlmWTAqS/B3Svn37dEFqaGjQXbZ+L0haNMrVPRq3FCVd0RbLOD32ZK3zGjObHHtrxxhZKjy+Rpc89dRTWW8hCasgydf+K1asQGlpqe6+5Z58U1aH4ib+XRGRV762lPqjIEkrScapZNvLly/HOeecE5CCRES9kZNv37Jp0KBBuOKKK/DLX/5Sn3R71VVXmTVElI+YPElEgZL3LSUiKiwsSkQUKCxKRBQoLEpEFCgsSkQUKL5++yZ/TzRhwgQz56/Zs2ebW4lWrVplbhFREPjaUurPOFwpOvbJye23354wuZO/xDanbZjJ00mt1ukd03OUUsmoXCoAvhal3sThZsJebCQZwD5lzpYSUF+FSI0VoOZGFbKaCKokVykh5sRHjMqlAuD7mFKmqZOBUDYVVehE+pPtS1E82twkol7xvSjJOWr9VZjmz5+vJ1FZWamnW265RU9tbW34yle+Epsy0tqcmDzZI4JWunvx2NpYuFrauFuzLMX9GhriZ/wnhrY5Rd6ax5i7tS6Mr48nDDAql4ItJ9++SWHyEofrhVylRCYpOjLJwHXy4PWaNWsSJmEVL3e2RMfmqbYumfrg94igHY3FttjaRt1/crqfVVSS43Td7xfuUvs2Xcj28Ap1byGFpQJN6nF6nZqc8uHKFpttyrFF6qLFilG5FHA5KUrSQvISh+uVvdhI2qR9cuNUvBKZMaWmEEojzaYYKCljbG28xt2muV9ojqka9i6kCYtLm5MUy1WSVpzBqFwKON+LkhSk/kqfFHLpJPvUZ0XVCIc6k9IdvcbYZvt+GZAuYQ3MdpsQKjXLGZVLAed7UeqPgjRlyhQ9iQULFiRM2SDXfSuxrkLiNcY22/ezKypHRWmax2zrQntpMfS4u25Z6aUxjMqloPK1KGUah+vFpk2bEiYnVtGyF6/MlGFO7Cq53mNss3s/uyJUN9arQhl/TI+HlM1RbaEwKmR9qAslVkuJUbkUcAURh0tEhYMhb0QUKDn59o2IyA2LEhEFCosSEQUKixIRBQqLEhEFCosSEQUKixIRBYqvRSmvMpSIKCd8LUr9GYebXZJLZE75MFPsNA5GzhL1K1+LUm/icBc9vgPD5q7Tk9x2s/mdzZi3eh7OW3oePn/b51H9ULVZA+w7sA9/v+Tve9xOzRaH2xRCpxWHmxA5mxiqRkR95/uYUiapk+9/fBCLn9iB6yaP0JPcdrL13a2Y8ZsZGDRwEFZcuQKR2RFUnlOp10kROnfJudh/YD/G/Xxc7La3wmToM/m9xOESUV/5XpTkhNxMCpNYPvtMPbn5t7X/huK/LcYdVXdgwqkTUHxiMS4vvVyvGzJ4CF5e8DKOHHwkOv65I3b7Lwv+otd7InG4VbVJrSP5GY/Atc7sd46gFS4xtAlRuPaz/aP7scfmum/bzmk/jMCl/OF7URJSmLzE4Z518wb90+q+iVPmr9c/7dp2tmFayTQMHJDNp2NPgwTqewSvlSVE4FrBbI4RtK7xtarwVIRRIldAiXUT7d1Be2yu27btXPbDCFzKIzkpStJC8hKH+4Hqvm352aSESZYl239wPwYPHGzmEvW++2YfUypGndexI6cIWrf4Wh2FW4WpVpEoqkZtVTvi6bq22FzhtG07t/0wApfyiO9FSQpSttMnzz75bLRsaTFzibLSfdNJj/Zi4cItgjYb+rJtRuBSHvG9KGW7IInQlBBeeuMlhB4P4cWdL+Ivb/4Fv37x12ZttDBZRch+2zPdAvFwTTe3CFq3+FoThdtsFQlVeOoitpaTnWu8re0bwDQxuYzApXzga1HKNA73uKGDMPYHGxImWZZMWkp3X3033vrgLdz4+xsx/9H56Hq3y6ztLduYkr4EktOVZ8swVXW3YgPdZS4RtK7xtdEo3M4a+36i40c9uG7bzmU/jMClPMI4XCIKFMbhElGg5OTbNyIiNyxKRBQoLEpEFCgsSkQUKCxKRBQoLEpEFCgsSkQUKL4WpUzC3Yjo8ORrUcqfOFxLYg7RuOkNaomwnW/mdzxuUv5S/JiICoOvRak3cbheZT0OV3/4K9BVa+JLZAoDLcln2CfE4/aGrcClI8ekz4+LH1N9SRfShRf0lME+iXzm+5hSpqmTXmQ/Dle1kELR8LWEQDRVgKpzFpBmHVNiASxb7HICL1Ge8r0oyQm5fSlM7/62EdtrQ2YuKutxuCYszTFCpIekVkdC98pcbMC6T0P8bP1o4Jos7xmp67gND8fkHJeb2AVd2Opln6kyl5K357aMqHd8L0pCCpOXONxkuiB9559w7AWTzZKofonDtbKLMqI+8PbuVT1s2UaqCHRNNcur0B5eoe7tFKmbYhu2Y+pukOxuKQLxgugYl9sjCtdtn6lieS1SfBi3S/0rJ0VJWkhe4nClRSSFSFgF6fQ7foG/nTFdL7P0Sxxuey/GanS8rS2HqUa1R2JxlaoIzDGf1rKpqii4XB0l1TZsxySBbbr4mHnNKS7XSxRu2lhew7TWGLdL/cn3oiQFyWv6pLSIpBBJcXIrSCLrcbgmwTGWCJmRKhNZa6ZeNRsctpHuMk/S/XKKy/UjCpdxu5RFvhclrwVJSAGSQvTuQ793LUgi+3G4RaiurUKkJukDpj74Dak+cCbe1i2O1hPXbZRhTgiqBWWNUyVxjcuNShmFmzKWV8agTFeOcbvkA1+LUqZxuEIK0fiNa10LkuiXONyyxWZsxXSjZFJFoTxlwycab6sqR/wxaZsNSZG6Kbahu2z1QI21XHXTOkPh6LdxZS5xuY5RuM77TB/Ly7hd6n+MwyWiQGEcLhEFSk6+fSMicsOiRESBwqJERIHCokREgcKiRESBwqJERIHCokREgeJrUeqPcDciKiy+FqX8icOV873MKRd6corx6A3beWRE5MjXotSbONxFj+/AsLnr9CS33WQ9DtfKG+rogD4VLRSELGwWNSp8vo8pZZI6+f7HB7H4iR24bvIIPcltJ9mPw01UVF2LqvYmtLAYEPU734uSnJCbSWESy2efqSc3WY/DTSnaWlm4UJIfrajaFFGytnXTG7aahSK51ZM8zxhbOjz5XpSEFCYvcbhn3bxB/7S6b+KU+ev1T7t+icO16W6oQ6S0AuWxRI52dBaHVddO4j1UsXCNkk1cF0ZTPBEyJafYWcbY0uEhJ0VJWkhe4nA/UN23LT+blDDJsmT9Eodri6SVjKD6xmrEU4JKUWFVqFRRsrKuNAQrBVd3A6M3U3OLnU3GGFsqQL4XJSlImaRPepH1OFwtPtAdbREVIMbYUgD5XpSyXZBE9uNwM5AqSlbWtYexwqzT3cDoTWU0ikttrZrW5vi6NLGzMYyxpQLka1HKNA73uKGDMPYHGxImWZasX+JwPUsVJavW1UezvmVdCBW27ls8B1w/rlkuF2BxiZ1V22OMLRU6xuESUaAwDpeIAiUn374REblhUSKiQGFRIqJAYVEiokBhUSKiQGFRIqJAYVEiokDxtShlEu5GRIcnX4tS/sbhej1Z1Xa+GRH1iq9FKV/jcDv0+Wsm0I2I+pXvY0qZpE4GJQ4XZVNRhU7wJHqi/ud7UZITcjMpTCLncbgSK2JPnvQcQWvHOFoiL3wvSkIKU/DjcOPJk+Oap6IjljzpNYLWjnG0RF7lpChJCyn4cbhmTEkVndJIc3w8yWsErR3jaIk8870oSUHKdvpk/8ThGqrohEOd6VMge4NxtEQ9+F6Usl2QRH/H4Urgf0k4ZKJlU0XQ2jGOlqg3fC1K+RuHW4Y5savkeo2gtWMcLZFXjMMlokBhHC4RBUpOvn0jInLDokREgcKiRESBwqJERIHCokREgcKiRESBwqJERIHia1HKJNyNiA5Pvhal/IrDTY4j8SHqVuc0MU6XDm++FqX8isPNAZ0a0AieAkeHM9/HlDJJnQxMHC4R+cb3oiQn5GZSmETO43B7cIqxTe7eJc63Lozff1wsOCl6n4ULp6vlcmGCpG14jt1l1C4VDt+LkpDCFPw43BR6EWNbtjh6346OelRF6mzFqx2dxWG1PDn+RBUoT7G7jNqlwpKToiQtpODH4abQmxjbWHZSDSJmUVQpKmJXJLDxGrvLqF0qML4XJSlI2U6fzH4c7mgUl5qbFl0kSjBGPvuZxthKN6wGqNetliaEkrfdHxi1S3nK96KU7YIksh+HW4QxJe0maTKqdUUY7VVTE7pYiTG2UshsLRm5LJO5iW1daC8tVvdQdMtGL00tZeyubeyJUbtUYHwtSvkUh1u2WLVoVDujwgwU13SG0GQNzDjG2BahulaupGsGl5uhOl9G2Zz4tkJdKPHUUvIau8uoXSosjMMlokBhHC4RBUpOvn0jInLDokREgcKiRESBwqJERIHCokREgcKiRESBwqJERIHia1HKJNyNiA5PvhalfInDleyjHmfXy2kbPKuVqN/5WpTyJQ63bGoV2pMyQlqbI6iK5YhkIim4jYhS8n1MKZPUyZzF4eosomZVTiytaI6doU9E/cn3oiQn5GZSmITvcbgmDiQWGyIxJFZsSUJErUTY6jtEW0MN8TPzo90/WS6hbu0IV6jlpvvnHI2bjBG3dHjyvSgJKUzBjsMtQnlFPIMo3nWTiFqJEDERtfWw5RipwtM11SxX3b/wCnXvMiyW+FuUIiSPMdEn7tG4Fkbc0uErJ0VJWkhBj8MtKq8AmlpUeejG1s5SFEtCm06fNK0eaa3UqDZQbOxJFZ45pkqUTVWFqBOuuWqu0bgGI27pMOZ7UZKClO30yezH4SrShUMTWlpVgVC34jHaVSbW1kyZNlf6Eo3LiFs6DPhelLJdkET243CFdOGAcE0YqChXc7IoGlHrFj3riWs0LiNuiYSvRSmf4nCFdOFKE642Eo2oVf030/1SU9rmShmmVtkGusu8ROMy4pYOX4zDJaJAYRwuEQVKTr59IyJyw6JERIHCokREgcKiRESBwqJERIHCokREgVIwfxIQCoXwzjvvmLmehgwZgptuugklJSVmCREFka9FSc57mzBhgpnLrtmzZ+P22283cz3Nnz8fRx55JBYsWICzzjrLLCWioPG1+5brONz9+/djyZIleO2118wSZ5J3lHj2iEN6ZNp4XIfH+MU6HWV6A7p1/hOTLyl/+FqU+jMO1yspTNKiOnTIvYEocbiRWMKbYiJLmlrin+zurZ0o1XkmQaOKYU0EVfUd6GisRpFOFmgET5OjfOH7QHcmqZNe43C9kEJkTfv27TNLXUhuUedWWCWou6UJJaEQEMtO6oZaZDtRN2hM/hNRHvK9KMkJuZkUJpEuDlfceeedOP744zFs2DAMGtQzSSAjVpaSrkrRAlRcPgYlsdzubehqL8EYqyY5RuQa2+Lr3MPZXGJuE7Zr71KarmGa+N34Mlv3zbbN6Q0NuetiErnIyZ8ESGHKZhzunj17cOWVV+L888/XY0YyoN23wlSEMSXtpmGkCpAOeZMIEpMmac/slg99qojcOiAsy3XkScihALhE3+rthlEi3TDz+M4aewFJH7/b2KPPlrjNsCq8jsmXRDmUk6IkLaRsxeHKONUxxxyDO+64Qxci2e6yZctw1FFHmXv0TmxcSQpQyRgd8qZ6dXpcKWE8KV1EbrjaBMRVo7bKKnQ2btG3eru2K6j0eHwG8bsW2WZpCNbDiqpr1eOIgsX3oiQFKZvpkzNmzMCWLVtQXFyMqVOn6mVPPPEEjjjiCH2718y4UqsqQNb13nRud1eLw3iSl4hcyfo2N4nIle9FKZsFSbz77rv6b5R+9KMf4eGHH9bLBg7MwtPS40phSBpubNBY4nAjYYTt40kpI3Jt39iZFlG0vtnGedyib812Y18Cdjegrq/XnpNttoexwmyzu6GO3TcKHF+LUn/E4V5xxRV477338Lvf/c4sie5HlvWttRS9zBJK7RcNkHEl9SM2niRSReSWoqQrGvI/To/lLLY9zuISfWu221ljtqnHrZwenwm1zXrVLTXbDKmyy+4bBU3ex+F++umnegxJumwDBgzQBWnXrl26O7dq1So9tiT3sZO/7r7nnnv0/Q9r8k1cRRdqO/pa7Iiyx9eWUrYLkpDW0Pe//320traipaUFDz30EM444wx0dXXpb/g++uijvo8vFajWFeH4lVWIAqIgM7ql6ybjTDIAPnbsWEQiEVRXV8f+ivvEE09EOBw+DFtK0T8/CMcu6yQD9GwlUbAU7IUDrMJ0wgkn6G4cEeWHgi1KRJSffP+TACKiVFiUiChQWJSIKFBYlIgoUDwNdMv5av0RYztt2jT9h46ZGDlyJJ5++mkzR0SFxlNR+uIXv4i77ror64Vp/PjxWLNmjZnzZsqUKdi0aZOZSybnlEmeUJwkMMaiQMbVobgpOYXRbTkR5YKn7psqXBmFsolsx9h6F80SimcQJYWuEVGgeR5TyiQt0muM7dChQ1FbW4vnn38eBw8e1DG1zz33HGpqalBeXq5bRcnT0UcfbR7tgT7T3kPOEBEFhueiJOetZVKYRLoY29WrV2Puorl4eM/DuOzBy1C5uhKNHzfihp/egFdeeQXr16/Hs88+mzBJl88znRBZy24ZUR7J6Ns3KUzZjLFd3b0at/7xVryz9x1cctYlevrrnr/i1uZbsezZZTpvO/Pz0+wpkEC9Y+AaEQVVRkVJWkjZirFt2dKCJ197Erd97Ta899F7+Oakb+pJbsuyxzY9hnXb1/XiDH/7mFIx6hiMT5RXPBclKUjZTI28p+0e7P5wN679zbV4f9/7uLzhcj3JbVkm61ZuWNm3rG2d6uiQi01EgeW5KGWzIIn23e148ltPYu7kubjm3Guw9sa1eppx7gzMmzxPr3v1zVf7Fm2rI2h5DTSifOLpE98fMbaWAerfIfXPknDl2l7FHdnGlHSErP3vj2zr1BS/DpvbciLym6c/nuyPGNuZv52Jth1tZs7ZpFGTsPLKlQmD6hJly3wkosLlqaWU7YIkZk+cjZOPPRkPfOMBHD/keDxe/bie5PYD1z2g110/6Xrcf//9uhBZ0/Dhw80WiKgQ5TTkbenapfpbtiFHDMF5I8/T3biXd72MfZ/uQ+XZlfjeV79n7klEh4ucJ0+u6Vqjv2XbtDt6PtvZp5ytW0gXjrlQzxPR4SXnRYmIyK4P37cTEWUfixIRBQqLEhEFCosSEQWKp4FuOe+NcbhE5AdPRSmf43BLQ01odAhUal04DjWoR0dCtAmjcYlyzVP3TRWujMLdRCDicDvqURKuwLiFSYG43Q2o66xCVWcdY02IAsbzmFImqZOBicNFGRY3hVAaaU7I6e5uaQIq5mBOBdDUwqpEFCSei5Kc/5ZJYRI5j8MVOlMpguZYVeqGrknlRWqVrkpqCREFRUbfvklhCn4cbhqSsYQKqJoULVhqjo0louDIqChJCyn4cbhO4kFv0a5bOaLj2EWQxlJ4BS/CRBQUnouSFKRspk/6EocrdPpkCcboKtSKFeF2tMvgtwl0q1DzSBpzIqLc8VyUslmQhC9xuPIVf0UYJfWLEb1IbjMipSE06W/mrKkJoYQxJyLKJU+f+LyNw9V/c2RdtltqUgSlsa6bRbpwpaqxZFUlRuMS5ZKnP55kHC4R+cVTSynbBUkwDpeInOQ05I1xuESULOfJk4zDJSK7nBclIiK7vnzfTkSUdSxKRBQoLEpEFCgsSkQUKJ4GuuW8N8bhEpEfPBWlvIvDlfPbGqvN6STdaJhegXB7Feo75By45HkiChJP3TdVuDIKdxO5i8MlonzmeUwpk9TJ4MThElG+8VyU5Py3TAqTCEQcLhHllYy+fZPClPdxuEQUaBkVJWkh5WccLhHlC89FSQpSNtMnfYvDtZQWw8R0E1GAeS5K2SxIon/icMswJ1SqNh5G7FoArSsgMdw9EyeJKIg8feLzKQ63qLoR9VVApMZE2tZEXC/dTUTB4+mPJxmHS0R+8dRSynZBEozDJSInOQ15YxwuESXLefIk43CJKA74/2az1tIix90eAAAAAElFTkSuQmCC;" vertex="1" parent="1">
          <mxGeometry x="471" y="740" width="293" height="284" as="geometry" />
        </mxCell>
        <mxCell id="Csk-3HbRqVcOM9MHtjag-16" value="" style="endArrow=classic;html=1;rounded=0;entryX=0.372;entryY=0.599;entryDx=0;entryDy=0;entryPerimeter=0;" edge="1" parent="1" target="Csk-3HbRqVcOM9MHtjag-15">
          <mxGeometry width="50" height="50" relative="1" as="geometry">
            <mxPoint x="590" y="640" as="sourcePoint" />
            <mxPoint x="660" y="580" as="targetPoint" />
          </mxGeometry>
        </mxCell>
        <mxCell id="Csk-3HbRqVcOM9MHtjag-17" value="4" style="text;html=1;align=center;verticalAlign=middle;resizable=0;points=[];autosize=1;strokeColor=none;fillColor=none;" vertex="1" parent="1">
          <mxGeometry x="590" y="700" width="30" height="30" as="geometry" />
        </mxCell>
        <mxCell id="Csk-3HbRqVcOM9MHtjag-18" value="" style="endArrow=classic;html=1;rounded=0;entryX=0.102;entryY=0.529;entryDx=0;entryDy=0;entryPerimeter=0;" edge="1" parent="1" target="Csk-3HbRqVcOM9MHtjag-7">
          <mxGeometry width="50" height="50" relative="1" as="geometry">
            <mxPoint x="490" y="920" as="sourcePoint" />
            <mxPoint x="490" y="316" as="targetPoint" />
            <Array as="points">
              <mxPoint x="370" y="920" />
              <mxPoint x="370" y="600" />
              <mxPoint x="370" y="316" />
            </Array>
          </mxGeometry>
        </mxCell>
        <mxCell id="Csk-3HbRqVcOM9MHtjag-19" value="5" style="text;html=1;align=center;verticalAlign=middle;resizable=0;points=[];autosize=1;strokeColor=none;fillColor=none;" vertex="1" parent="1">
          <mxGeometry x="440" y="890" width="30" height="30" as="geometry" />
        </mxCell>
        <mxCell id="Csk-3HbRqVcOM9MHtjag-20" value="" style="endArrow=classic;html=1;rounded=0;entryX=0.136;entryY=0.652;entryDx=0;entryDy=0;entryPerimeter=0;" edge="1" parent="1" target="Csk-3HbRqVcOM9MHtjag-7">
          <mxGeometry width="50" height="50" relative="1" as="geometry">
            <mxPoint x="510" y="320" as="sourcePoint" />
            <mxPoint x="560" y="270" as="targetPoint" />
            <Array as="points">
              <mxPoint x="480" y="340" />
              <mxPoint x="480" y="350" />
            </Array>
          </mxGeometry>
        </mxCell>
        <mxCell id="Csk-3HbRqVcOM9MHtjag-21" value="6" style="text;html=1;align=center;verticalAlign=middle;resizable=0;points=[];autosize=1;strokeColor=none;fillColor=none;" vertex="1" parent="1">
          <mxGeometry x="470" y="350" width="30" height="30" as="geometry" />
        </mxCell>
      </root>
    </mxGraphModel>
  </diagram>
</mxfile>
